<svg xmlns="http://www.w3.org/2000/svg" width="18" height="19" viewBox="0 0 18 19">
  <path fill="#FFF" d="M8.99997854,-3.74996245 C10.0077888,-3.74996245 10.9452862,-3.49800975 11.8124718,-2.99410488 C12.6796574,-2.49020001 13.3652027,-1.80465477 13.8691076,-0.937469155 C14.3730124,-0.0702835433 14.6249651,0.867213864 14.6249651,1.87502414 C14.6249651,2.88283442 14.3730124,3.82033182 13.8691076,4.68751743 C13.3652027,5.55470305 12.6796574,6.24024829 11.8124718,6.74415316 C10.9452862,7.24805803 10.0077888,7.50001073 8.99997854,7.50001073 C7.99216827,7.50001073 7.05467086,7.24805803 6.18748525,6.74415316 C5.32029964,6.24024829 4.6347544,5.55470305 4.13084953,4.68751743 C3.62694466,3.82033182 3.37499195,2.88283442 3.37499195,1.87502414 C3.37499195,0.867213864 3.62694466,-0.0702835433 4.13084953,-0.937469155 C4.6347544,-1.80465477 5.32029964,-2.49020001 6.18748525,-2.99410488 C7.05467086,-3.49800975 7.99216827,-3.74996245 8.99997854,-3.74996245 Z M15.433557,7.99219706 C16.183555,8.17969643 16.7987879,8.57813334 17.2792557,9.18750671 C17.7597235,9.79688007 17.9999571,10.4882849 17.9999571,11.2617205 L17.9999571,12.5624987 C17.9999571,13.0312474 17.8358948,13.4296843 17.5077708,13.7578083 C17.1796467,14.0859323 16.7812098,14.2499946 16.3124611,14.2499946 L1.68749598,14.2499946 C1.21874727,14.2499946 0.820310365,14.0859323 0.492186327,13.7578083 C0.164062288,13.4296843 0,13.0312474 0,12.5624987 L0,11.2617205 C0,10.4882849 0.240233623,9.79688007 0.720701407,9.18750671 C1.20116919,8.57813334 1.8164021,8.17969643 2.56640013,7.99219706 L5.06248793,7.35938606 C6.16404762,8.15625934 7.40623252,8.57813334 8.78904155,8.62500805 C10.3124752,8.67188276 11.6952848,8.25000876 12.9374692,7.35938606 L15.433557,7.99219706 Z" transform="translate(0 3.86)"/>
</svg>
