<svg xmlns="http://www.w3.org/2000/svg" width="10" height="21" viewBox="0 0 10 21">
  <path fill="#2E0057" d="M9.52732282,42.1289131 C9.80075988,42.1289131 10.0331808,42.2246158 10.2245868,42.4160218 C10.4159928,42.6074278 10.5116955,42.8398487 10.5116955,43.1132857 C10.5116955,43.3867228 10.4159928,43.6191437 10.2245868,43.8105497 L6.69725145,47.3378851 C6.50584544,47.5292911 6.27342454,47.6249937 5.99998748,47.6249937 C5.72655043,47.6249937 5.49412952,47.5292911 5.30272352,47.3378851 L1.77538818,43.8105497 C1.58398218,43.6191437 1.48827949,43.3867228 1.48827949,43.1132857 C1.48827949,42.8398487 1.58398218,42.6074278 1.77538818,42.4160218 C1.96679418,42.2246158 2.19921509,42.1289131 2.47265214,42.1289131 L4.35936639,42.1289131 L4.35936639,32.1211245 L2.47265214,32.1211245 C2.19921509,32.1211245 1.96679418,32.0254218 1.77538818,31.8340158 C1.58398218,31.6426098 1.48827949,31.4101889 1.48827949,31.1367518 C1.48827949,30.8633147 1.58398218,30.6308938 1.77538818,30.4394878 L5.30272352,26.9121525 C5.49412952,26.7207465 5.72655043,26.6250438 5.99998748,26.6250438 C6.27342454,26.6250438 6.50584544,26.7207465 6.69725145,26.9121525 L10.2245868,30.4394878 C10.4159928,30.6308938 10.5116955,30.8633147 10.5116955,31.1367518 C10.5116955,31.4101889 10.4159928,31.6426098 10.2245868,31.8340158 C10.0331808,32.0254218 9.80075988,32.1211245 9.52732282,32.1211245 L7.64060857,32.1211245 L7.64060857,42.1289131 L9.52732282,42.1289131 Z" transform="translate(-1 -26.588)"/>
</svg>
