<svg xmlns="http://www.w3.org/2000/svg" width="21" height="21" viewBox="0 0 21 21">
  <path fill="#2E0057" d="M13.302711,39.871137 C13.7675534,39.7070749 14.2323965,39.7070749 14.6972389,39.871137 L23.2284686,43.0703481 C23.61128,43.2344102 23.9188964,43.4805034 24.151318,43.8086276 C24.3837395,44.1367518 24.4999499,44.5058915 24.4999499,44.9160468 L24.4999499,54.1445404 C24.4999499,54.5273518 24.4042472,54.8759838 24.2128412,55.1904364 C24.0214352,55.504889 23.7479988,55.744146 23.3925307,55.9082081 L14.861301,60.1738229 C14.587864,60.3105412 14.3007553,60.3789006 13.999975,60.3789006 C13.6991946,60.3789006 13.412086,60.3105412 13.1386489,60.1738229 L4.60741923,55.9082081 C4.25195112,55.744146 3.97851469,55.504889 3.78710869,55.1904364 C3.59570269,54.8759838 3.5,54.5273518 3.5,54.1445404 L3.5,44.9160468 C3.5,44.5058915 3.61621045,44.1367518 3.84863198,43.8086276 C4.08105351,43.4805034 4.38866996,43.2344102 4.77148134,43.0703481 L13.302711,39.871137 Z M13.999975,42.4140997 L6.12499374,45.3672176 L6.12499374,45.4082331 L13.999975,48.6074443 L21.8749562,45.4082331 L21.8749562,45.3672176 L13.999975,42.4140997 Z M15.3124718,57.0156273 L21.8749562,53.7343852 L21.8749562,48.2383045 L15.3124718,50.9043138 L15.3124718,57.0156273 Z" transform="translate(-3.5 -39.5)"/>
</svg>
