<svg xmlns="http://www.w3.org/2000/svg" width="19" height="22" viewBox="0 0 19 22">
  <path fill="#2E0057" d="M20.6952699,59.3124969 C20.8319881,59.3124969 20.9481992,59.3603485 21.0439018,59.4560512 C21.1396045,59.5517539 21.1874562,59.667965 21.1874562,59.8046832 L21.1874562,60.6249937 L2.8125,60.6249937 L2.8125,59.8046832 C2.8125,59.667965 2.86035166,59.5517539 2.95605435,59.4560512 C3.05175703,59.3603485 3.16796811,59.3124969 3.30468633,59.3124969 L4.12499687,59.3124969 L4.12499687,40.6094165 C4.12499687,40.3359794 4.22069956,40.1035585 4.41210556,39.9121525 C4.60351156,39.7207465 4.83593247,39.6250438 5.10936952,39.6250438 L18.8905867,39.6250438 C19.1640237,39.6250438 19.3964446,39.7207465 19.5878506,39.9121525 C19.7792566,40.1035585 19.8749593,40.3359794 19.8749593,40.6094165 L19.8749593,59.3124969 L20.6952699,59.3124969 Z M8.06248748,42.7422239 L8.06248748,44.382845 C8.06248748,44.5195632 8.11033914,44.6357743 8.20604183,44.7314769 C8.30174452,44.8271796 8.41795559,44.8750313 8.55467381,44.8750313 L10.1952949,44.8750313 C10.3320131,44.8750313 10.4482242,44.8271796 10.5439269,44.7314769 C10.6396296,44.6357743 10.6874812,44.5195632 10.6874812,44.382845 L10.6874812,42.7422239 C10.6874812,42.6055057 10.6396296,42.4892946 10.5439269,42.3935919 C10.4482242,42.2978892 10.3320131,42.2500376 10.1952949,42.2500376 L8.55467381,42.2500376 C8.41795559,42.2500376 8.30174452,42.2978892 8.20604183,42.3935919 C8.11033914,42.4892946 8.06248748,42.6055057 8.06248748,42.7422239 Z M8.06248748,46.6797145 L8.06248748,48.3203356 C8.06248748,48.4570538 8.11033914,48.5732649 8.20604183,48.6689676 C8.30174452,48.7646702 8.41795559,48.8125219 8.55467381,48.8125219 L10.1952949,48.8125219 C10.3320131,48.8125219 10.4482242,48.7646702 10.5439269,48.6689676 C10.6396296,48.5732649 10.6874812,48.4570538 10.6874812,48.3203356 L10.6874812,46.6797145 C10.6874812,46.5429963 10.6396296,46.4267852 10.5439269,46.3310825 C10.4482242,46.2353798 10.3320131,46.1875282 10.1952949,46.1875282 L8.55467381,46.1875282 C8.41795559,46.1875282 8.30174452,46.2353798 8.20604183,46.3310825 C8.11033914,46.4267852 8.06248748,46.5429963 8.06248748,46.6797145 Z M10.1952949,52.7500125 C10.3320131,52.7500125 10.4482242,52.7021609 10.5439269,52.6064582 C10.6396296,52.5107555 10.6874812,52.3945444 10.6874812,52.2578262 L10.6874812,50.6172051 C10.6874812,50.4804869 10.6396296,50.3642758 10.5439269,50.2685731 C10.4482242,50.1728704 10.3320131,50.1250188 10.1952949,50.1250188 L8.55467381,50.1250188 C8.41795559,50.1250188 8.30174452,50.1728704 8.20604183,50.2685731 C8.11033914,50.3642758 8.06248748,50.4804869 8.06248748,50.6172051 L8.06248748,52.2578262 C8.06248748,52.3945444 8.11033914,52.5107555 8.20604183,52.6064582 C8.30174452,52.7021609 8.41795559,52.7500125 8.55467381,52.7500125 L10.1952949,52.7500125 Z M13.312475,59.3124969 L13.312475,55.8671926 C13.312475,55.7304744 13.2646233,55.6142633 13.1689206,55.5185606 C13.0732179,55.4228579 12.9570069,55.3750063 12.8202886,55.3750063 L11.1796676,55.3750063 C11.0429493,55.3750063 10.9267383,55.4228579 10.8310356,55.5185606 C10.7353329,55.6142633 10.6874812,55.7304744 10.6874812,55.8671926 L10.6874812,59.3124969 L13.312475,59.3124969 Z M15.9374687,52.2578262 L15.9374687,50.6172051 C15.9374687,50.4804869 15.8896171,50.3642758 15.7939144,50.2685731 C15.6982117,50.1728704 15.5820006,50.1250188 15.4452824,50.1250188 L13.8046613,50.1250188 C13.6679431,50.1250188 13.551732,50.1728704 13.4560293,50.2685731 C13.3603266,50.3642758 13.312475,50.4804869 13.312475,50.6172051 L13.312475,52.2578262 C13.312475,52.3945444 13.3603266,52.5107555 13.4560293,52.6064582 C13.551732,52.7021609 13.6679431,52.7500125 13.8046613,52.7500125 L15.4452824,52.7500125 C15.5820006,52.7500125 15.6982117,52.7021609 15.7939144,52.6064582 C15.8896171,52.5107555 15.9374687,52.3945444 15.9374687,52.2578262 Z M15.9374687,48.3203356 L15.9374687,46.6797145 C15.9374687,46.5429963 15.8896171,46.4267852 15.7939144,46.3310825 C15.6982117,46.2353798 15.5820006,46.1875282 15.4452824,46.1875282 L13.8046613,46.1875282 C13.6679431,46.1875282 13.551732,46.2353798 13.4560293,46.3310825 C13.3603266,46.4267852 13.312475,46.5429963 13.312475,46.6797145 L13.312475,48.3203356 C13.312475,48.4570538 13.3603266,48.5732649 13.4560293,48.6689676 C13.551732,48.7646702 13.6679431,48.8125219 13.8046613,48.8125219 L15.4452824,48.8125219 C15.5820006,48.8125219 15.6982117,48.7646702 15.7939144,48.6689676 C15.8896171,48.5732649 15.9374687,48.4570538 15.9374687,48.3203356 Z M15.9374687,44.382845 L15.9374687,42.7422239 C15.9374687,42.6055057 15.8896171,42.4892946 15.7939144,42.3935919 C15.6982117,42.2978892 15.5820006,42.2500376 15.4452824,42.2500376 L13.8046613,42.2500376 C13.6679431,42.2500376 13.551732,42.2978892 13.4560293,42.3935919 C13.3603266,42.4892946 13.312475,42.6055057 13.312475,42.7422239 L13.312475,44.382845 C13.312475,44.5195632 13.3603266,44.6357743 13.4560293,44.7314769 C13.551732,44.8271796 13.6679431,44.8750313 13.8046613,44.8750313 L15.4452824,44.8750313 C15.5820006,44.8750313 15.6982117,44.8271796 15.7939144,44.7314769 C15.8896171,44.6357743 15.9374687,44.5195632 15.9374687,44.382845 Z" transform="translate(-2.5 -39)"/>
</svg>
