<svg xmlns="http://www.w3.org/2000/svg" width="19" height="22" viewBox="0 0 19 22">
  <path fill="#2E0057" d="M18.1952699,21.1875282 L0.804686327,21.1875282 C0.667968111,21.1875282 0.551757033,21.1396765 0.456054345,21.0439738 C0.360351657,20.9482711 0.3125,20.8320601 0.3125,20.6953418 L0.3125,19.2187829 C0.3125,18.6719094 0.503906002,18.2070663 0.886717381,17.8242549 C1.26952876,17.4414436 1.73437182,17.2500376 2.28124531,17.2500376 L4.24999061,17.2500376 L4.24999061,15.1172301 C4.24999061,14.9805119 4.29784227,14.8643008 4.39354496,14.7685982 C4.48924765,14.6728955 4.60545872,14.6250438 4.74217694,14.6250438 L6.38279803,14.6250438 C6.51951624,14.6250438 6.63572732,14.6728955 6.73143001,14.7685982 C6.8271327,14.8643008 6.87498435,14.9805119 6.87498435,15.1172301 L6.87498435,17.2500376 L12.1249718,17.2500376 L12.1249718,15.1172301 C12.1249718,14.9805119 12.1728235,14.8643008 12.2685262,14.7685982 C12.3642289,14.6728955 12.4804399,14.6250438 12.6171582,14.6250438 L14.2577793,14.6250438 C14.3944975,14.6250438 14.5107085,14.6728955 14.6064112,14.7685982 C14.7021139,14.8643008 14.7499656,14.9805119 14.7499656,15.1172301 L14.7499656,17.2500376 L16.7187109,17.2500376 C17.2655844,17.2500376 17.7304274,17.4414436 18.1132388,17.8242549 C18.4960502,18.2070663 18.6874562,18.6719094 18.6874562,19.2187829 L18.6874562,20.6953418 C18.6874562,20.8320601 18.6396045,20.9482711 18.5439018,21.0439738 C18.4481992,21.1396765 18.3319881,21.1875282 18.1952699,21.1875282 Z M0.804686327,22.500025 L18.1952699,22.500025 C18.3319881,22.500025 18.4481992,22.5478767 18.5439018,22.6435794 C18.6396045,22.7392821 18.6874562,22.8554931 18.6874562,22.9922114 L18.6874562,33.6562484 C18.6874562,34.2031219 18.4960502,34.667965 18.1132388,35.0507764 C17.7304274,35.4335877 17.2655844,35.6249937 16.7187109,35.6249937 L2.28124531,35.6249937 C1.73437182,35.6249937 1.26952876,35.4335877 0.886717381,35.0507764 C0.503906002,34.667965 0.3125,34.2031219 0.3125,33.6562484 L0.3125,22.9922114 C0.3125,22.8554931 0.360351657,22.7392821 0.456054345,22.6435794 C0.551757033,22.5478767 0.667968111,22.500025 0.804686327,22.500025 Z M14.4628569,26.4375156 L13.3144221,25.2890809 C13.2323911,25.1797059 13.1230161,25.1250188 12.9862979,25.1250188 C12.8495797,25.1250188 12.7265331,25.1660343 12.6171582,25.2480654 L8.26951228,29.5957112 L6.38279803,27.6679815 C6.30076697,27.5859504 6.19139202,27.5449349 6.05467381,27.5449349 C5.91795559,27.5449349 5.79490901,27.5859504 5.68553406,27.6679815 L4.5370993,28.8164162 C4.42772435,28.9257912 4.37303719,29.0488378 4.37303719,29.185556 C4.37303719,29.3222742 4.42772435,29.4316491 4.5370993,29.5136802 L7.90037253,32.9589845 C8.00974748,33.0410155 8.13279406,33.0820311 8.26951228,33.0820311 C8.40623049,33.0820311 8.51560544,33.0410155 8.5976365,32.9589845 L14.4628569,27.1347796 C14.5722318,27.0254047 14.626919,26.9023581 14.626919,26.7656399 C14.626919,26.6289216 14.5722318,26.5195467 14.4628569,26.4375156 Z" transform="translate(0 -14.588)"/>
</svg>
