<svg xmlns="http://www.w3.org/2000/svg" width="19" height="22" viewBox="0 0 19 22">
  <path fill="#2E0057" d="M20.6952699,47.1875282 L3.30468633,47.1875282 C3.16796811,47.1875282 3.05175703,47.1396765 2.95605435,47.0439738 C2.86035166,46.9482711 2.8125,46.8320601 2.8125,46.6953418 L2.8125,45.2187829 C2.8125,44.6719094 3.003906,44.2070663 3.38671738,43.8242549 C3.76952876,43.4414436 4.23437182,43.2500376 4.78124531,43.2500376 L6.74999061,43.2500376 L6.74999061,41.1172301 C6.74999061,40.9805119 6.79784227,40.8643008 6.89354496,40.7685982 C6.98924765,40.6728955 7.10545872,40.6250438 7.24217694,40.6250438 L8.88279803,40.6250438 C9.01951624,40.6250438 9.13572732,40.6728955 9.23143001,40.7685982 C9.3271327,40.8643008 9.37498435,40.9805119 9.37498435,41.1172301 L9.37498435,43.2500376 L14.6249718,43.2500376 L14.6249718,41.1172301 C14.6249718,40.9805119 14.6728235,40.8643008 14.7685262,40.7685982 C14.8642289,40.6728955 14.9804399,40.6250438 15.1171582,40.6250438 L16.7577793,40.6250438 C16.8944975,40.6250438 17.0107085,40.6728955 17.1064112,40.7685982 C17.2021139,40.8643008 17.2499656,40.9805119 17.2499656,41.1172301 L17.2499656,43.2500376 L19.2187109,43.2500376 C19.7655844,43.2500376 20.2304274,43.4414436 20.6132388,43.8242549 C20.9960502,44.2070663 21.1874562,44.6719094 21.1874562,45.2187829 L21.1874562,46.6953418 C21.1874562,46.8320601 21.1396045,46.9482711 21.0439018,47.0439738 C20.9481992,47.1396765 20.8319881,47.1875282 20.6952699,47.1875282 Z M3.30468633,48.500025 L20.6952699,48.500025 C20.8319881,48.500025 20.9481992,48.5478767 21.0439018,48.6435794 C21.1396045,48.7392821 21.1874562,48.8554931 21.1874562,48.9922114 L21.1874562,59.6562484 C21.1874562,60.2031219 20.9960502,60.667965 20.6132388,61.0507764 C20.2304274,61.4335877 19.7655844,61.6249937 19.2187109,61.6249937 L4.78124531,61.6249937 C4.23437182,61.6249937 3.76952876,61.4335877 3.38671738,61.0507764 C3.003906,60.667965 2.8125,60.2031219 2.8125,59.6562484 L2.8125,48.9922114 C2.8125,48.8554931 2.86035166,48.7392821 2.95605435,48.6435794 C3.05175703,48.5478767 3.16796811,48.500025 3.30468633,48.500025 Z M8.06248748,56.8671926 C8.06248748,56.7304744 8.01463583,56.6142633 7.91893314,56.5185606 C7.82323045,56.4228579 7.70701937,56.3750063 7.57030116,56.3750063 L5.92968007,56.3750063 C5.79296185,56.3750063 5.67675077,56.4228579 5.58104809,56.5185606 C5.4853454,56.6142633 5.43749374,56.7304744 5.43749374,56.8671926 L5.43749374,58.5078137 C5.43749374,58.6445319 5.4853454,58.760743 5.58104809,58.8564457 C5.67675077,58.9521483 5.79296185,59 5.92968007,59 L7.57030116,59 C7.70701937,59 7.82323045,58.9521483 7.91893314,58.8564457 C8.01463583,58.760743 8.06248748,58.6445319 8.06248748,58.5078137 L8.06248748,56.8671926 Z M8.06248748,51.6172051 C8.06248748,51.4804869 8.01463583,51.3642758 7.91893314,51.2685731 C7.82323045,51.1728704 7.70701937,51.1250188 7.57030116,51.1250188 L5.92968007,51.1250188 C5.79296185,51.1250188 5.67675077,51.1728704 5.58104809,51.2685731 C5.4853454,51.3642758 5.43749374,51.4804869 5.43749374,51.6172051 L5.43749374,53.2578262 C5.43749374,53.3945444 5.4853454,53.5107555 5.58104809,53.6064582 C5.67675077,53.7021609 5.79296185,53.7500125 5.92968007,53.7500125 L7.57030116,53.7500125 C7.70701937,53.7500125 7.82323045,53.7021609 7.91893314,53.6064582 C8.01463583,53.5107555 8.06248748,53.3945444 8.06248748,53.2578262 L8.06248748,51.6172051 Z M13.312475,56.8671926 C13.312475,56.7304744 13.2646233,56.6142633 13.1689206,56.5185606 C13.0732179,56.4228579 12.9570069,56.3750063 12.8202886,56.3750063 L11.1796676,56.3750063 C11.0429493,56.3750063 10.9267383,56.4228579 10.8310356,56.5185606 C10.7353329,56.6142633 10.6874812,56.7304744 10.6874812,56.8671926 L10.6874812,58.5078137 C10.6874812,58.6445319 10.7353329,58.760743 10.8310356,58.8564457 C10.9267383,58.9521483 11.0429493,59 11.1796676,59 L12.8202886,59 C12.9570069,59 13.0732179,58.9521483 13.1689206,58.8564457 C13.2646233,58.760743 13.312475,58.6445319 13.312475,58.5078137 L13.312475,56.8671926 Z M13.312475,51.6172051 C13.312475,51.4804869 13.2646233,51.3642758 13.1689206,51.2685731 C13.0732179,51.1728704 12.9570069,51.1250188 12.8202886,51.1250188 L11.1796676,51.1250188 C11.0429493,51.1250188 10.9267383,51.1728704 10.8310356,51.2685731 C10.7353329,51.3642758 10.6874812,51.4804869 10.6874812,51.6172051 L10.6874812,53.2578262 C10.6874812,53.3945444 10.7353329,53.5107555 10.8310356,53.6064582 C10.9267383,53.7021609 11.0429493,53.7500125 11.1796676,53.7500125 L12.8202886,53.7500125 C12.9570069,53.7500125 13.0732179,53.7021609 13.1689206,53.6064582 C13.2646233,53.5107555 13.312475,53.3945444 13.312475,53.2578262 L13.312475,51.6172051 Z M18.5624624,56.8671926 C18.5624624,56.7304744 18.5146108,56.6142633 18.4189081,56.5185606 C18.3232054,56.4228579 18.2069943,56.3750063 18.0702761,56.3750063 L16.429655,56.3750063 C16.2929368,56.3750063 16.1767257,56.4228579 16.0810231,56.5185606 C15.9853204,56.6142633 15.9374687,56.7304744 15.9374687,56.8671926 L15.9374687,58.5078137 C15.9374687,58.6445319 15.9853204,58.760743 16.0810231,58.8564457 C16.1767257,58.9521483 16.2929368,59 16.429655,59 L18.0702761,59 C18.2069943,59 18.3232054,58.9521483 18.4189081,58.8564457 C18.5146108,58.760743 18.5624624,58.6445319 18.5624624,58.5078137 L18.5624624,56.8671926 Z M18.5624624,51.6172051 C18.5624624,51.4804869 18.5146108,51.3642758 18.4189081,51.2685731 C18.3232054,51.1728704 18.2069943,51.1250188 18.0702761,51.1250188 L16.429655,51.1250188 C16.2929368,51.1250188 16.1767257,51.1728704 16.0810231,51.2685731 C15.9853204,51.3642758 15.9374687,51.4804869 15.9374687,51.6172051 L15.9374687,53.2578262 C15.9374687,53.3945444 15.9853204,53.5107555 16.0810231,53.6064582 C16.1767257,53.7021609 16.2929368,53.7500125 16.429655,53.7500125 L18.0702761,53.7500125 C18.2069943,53.7500125 18.3232054,53.7021609 18.4189081,53.6064582 C18.5146108,53.5107555 18.5624624,53.3945444 18.5624624,53.2578262 L18.5624624,51.6172051 Z" transform="translate(-2.5 -40.338)"/>
</svg>
