<svg xmlns="http://www.w3.org/2000/svg" width="19" height="22" viewBox="0 0 19 22">
  <path fill="#2E0057" d="M18.1952699,71.1875282 L0.804686327,71.1875282 C0.667968111,71.1875282 0.551757033,71.1396765 0.456054345,71.0439738 C0.360351657,70.9482711 0.3125,70.8320601 0.3125,70.6953418 L0.3125,69.2187829 C0.3125,68.6719094 0.503906002,68.2070663 0.886717381,67.8242549 C1.26952876,67.4414436 1.73437182,67.2500376 2.28124531,67.2500376 L4.24999061,67.2500376 L4.24999061,65.1172301 C4.24999061,64.9805119 4.29784227,64.8643008 4.39354496,64.7685982 C4.48924765,64.6728955 4.60545872,64.6250438 4.74217694,64.6250438 L6.38279803,64.6250438 C6.51951624,64.6250438 6.63572732,64.6728955 6.73143001,64.7685982 C6.8271327,64.8643008 6.87498435,64.9805119 6.87498435,65.1172301 L6.87498435,67.2500376 L12.1249718,67.2500376 L12.1249718,65.1172301 C12.1249718,64.9805119 12.1728235,64.8643008 12.2685262,64.7685982 C12.3642289,64.6728955 12.4804399,64.6250438 12.6171582,64.6250438 L14.2577793,64.6250438 C14.3944975,64.6250438 14.5107085,64.6728955 14.6064112,64.7685982 C14.7021139,64.8643008 14.7499656,64.9805119 14.7499656,65.1172301 L14.7499656,67.2500376 L16.7187109,67.2500376 C17.2655844,67.2500376 17.7304274,67.4414436 18.1132388,67.8242549 C18.4960502,68.2070663 18.6874562,68.6719094 18.6874562,69.2187829 L18.6874562,70.6953418 C18.6874562,70.8320601 18.6396045,70.9482711 18.5439018,71.0439738 C18.4481992,71.1396765 18.3319881,71.1875282 18.1952699,71.1875282 Z M0.804686327,72.500025 L18.1952699,72.500025 C18.3319881,72.500025 18.4481992,72.5478767 18.5439018,72.6435794 C18.6396045,72.7392821 18.6874562,72.8554931 18.6874562,72.9922114 L18.6874562,83.6562484 C18.6874562,84.2031219 18.4960502,84.667965 18.1132388,85.0507764 C17.7304274,85.4335877 17.2655844,85.6249937 16.7187109,85.6249937 L2.28124531,85.6249937 C1.73437182,85.6249937 1.26952876,85.4335877 0.886717381,85.0507764 C0.503906002,84.667965 0.3125,84.2031219 0.3125,83.6562484 L0.3125,72.9922114 C0.3125,72.8554931 0.360351657,72.7392821 0.456054345,72.6435794 C0.551757033,72.5478767 0.667968111,72.500025 0.804686327,72.500025 Z M11.3456768,79.0625094 L13.3144221,77.0937641 C13.4237971,76.9843891 13.4784842,76.8613426 13.4784842,76.7246243 C13.4784842,76.5879061 13.4237971,76.4785312 13.3144221,76.3965001 L12.1659874,75.2480654 C12.0839563,75.1386904 11.9745814,75.0840032 11.8378631,75.0840032 C11.7011449,75.0840032 11.5780983,75.1386904 11.4687234,75.2480654 L9.4999781,77.2168107 L7.53123279,75.2480654 C7.42185784,75.1386904 7.29881126,75.0840032 7.16209304,75.0840032 C7.02537483,75.0840032 6.91599988,75.1386904 6.83396883,75.2480654 L5.68553406,76.3965001 C5.57615912,76.4785312 5.52147196,76.5879061 5.52147196,76.7246243 C5.52147196,76.8613426 5.57615912,76.9843891 5.68553406,77.0937641 L7.65427937,79.0625094 L5.68553406,81.0312547 C5.57615912,81.1406296 5.52147196,81.2636762 5.52147196,81.4003944 C5.52147196,81.5371127 5.57615912,81.6464876 5.68553406,81.7285187 L6.83396883,82.8769534 C6.91599988,82.9863284 7.02537483,83.0410155 7.16209304,83.0410155 C7.29881126,83.0410155 7.42185784,82.9863284 7.53123279,82.8769534 L9.4999781,80.9082081 L11.4687234,82.8769534 C11.5780983,82.9863284 11.7011449,83.0410155 11.8378631,83.0410155 C11.9745814,83.0410155 12.0839563,82.9863284 12.1659874,82.8769534 L13.3144221,81.7285187 C13.4237971,81.6464876 13.4784842,81.5371127 13.4784842,81.4003944 C13.4784842,81.2636762 13.4237971,81.1406296 13.3144221,81.0312547 L11.3456768,79.0625094 Z" transform="translate(0 -64.588)"/>
</svg>
