<svg xmlns="http://www.w3.org/2000/svg" width="17" height="22" viewBox="0 0 17 22">
  <path fill="#2E0057" d="M12.3166285,42.2031555 C12.3166285,42.4765926 12.4123312,42.7090135 12.6037372,42.9004195 C12.7951432,43.0918255 13.0275641,43.1875282 13.3010011,43.1875282 L18.8791128,43.1875282 L18.8791128,56.6406211 C18.8791128,56.9140581 18.7834102,57.146479 18.5920041,57.3378851 C18.4005981,57.5292911 18.1681772,57.6249937 17.8947402,57.6249937 L4.11352304,57.6249937 C3.84008599,57.6249937 3.60766508,57.5292911 3.41625908,57.3378851 C3.22485308,57.146479 3.12915039,56.9140581 3.12915039,56.6406211 L3.12915039,37.6094165 C3.12915039,37.3359794 3.22485308,37.1035585 3.41625908,36.9121525 C3.60766508,36.7207465 3.84008599,36.6250438 4.11352304,36.6250438 L12.3166285,36.6250438 L12.3166285,42.2031555 Z M14.9416222,51.8828199 L14.9416222,51.5546957 C14.9416222,51.4179775 14.8937706,51.3017664 14.7980679,51.2060637 C14.7023652,51.110361 14.5861541,51.0625094 14.4494359,51.0625094 L7.55882733,51.0625094 C7.42210911,51.0625094 7.30589804,51.110361 7.21019535,51.2060637 C7.11449266,51.3017664 7.066641,51.4179775 7.066641,51.5546957 L7.066641,51.8828199 C7.066641,52.0195381 7.11449266,52.1357492 7.21019535,52.2314519 C7.30589804,52.3271546 7.42210911,52.3750063 7.55882733,52.3750063 L14.4494359,52.3750063 C14.5861541,52.3750063 14.7023652,52.3271546 14.7980679,52.2314519 C14.8937706,52.1357492 14.9416222,52.0195381 14.9416222,51.8828199 Z M14.9416222,49.2578262 L14.9416222,48.929702 C14.9416222,48.7929838 14.8937706,48.6767727 14.7980679,48.58107 C14.7023652,48.4853673 14.5861541,48.4375156 14.4494359,48.4375156 L7.55882733,48.4375156 C7.42210911,48.4375156 7.30589804,48.4853673 7.21019535,48.58107 C7.11449266,48.6767727 7.066641,48.7929838 7.066641,48.929702 L7.066641,49.2578262 C7.066641,49.3945444 7.11449266,49.5107555 7.21019535,49.6064582 C7.30589804,49.7021609 7.42210911,49.7500125 7.55882733,49.7500125 L14.4494359,49.7500125 C14.5861541,49.7500125 14.7023652,49.7021609 14.7980679,49.6064582 C14.8937706,49.5107555 14.9416222,49.3945444 14.9416222,49.2578262 Z M14.9416222,46.3047082 C14.9416222,46.16799 14.8937706,46.0517789 14.7980679,45.9560762 C14.7023652,45.8603736 14.5861541,45.8125219 14.4494359,45.8125219 L7.55882733,45.8125219 C7.42210911,45.8125219 7.30589804,45.8603736 7.21019535,45.9560762 C7.11449266,46.0517789 7.066641,46.16799 7.066641,46.3047082 L7.066641,46.6328324 C7.066641,46.7695507 7.11449266,46.8857617 7.21019535,46.9814644 C7.30589804,47.0771671 7.42210911,47.1250188 7.55882733,47.1250188 L14.4494359,47.1250188 C14.5861541,47.1250188 14.7023652,47.0771671 14.7980679,46.9814644 C14.8937706,46.8857617 14.9416222,46.7695507 14.9416222,46.6328324 L14.9416222,46.3047082 Z M18.8791128,41.8750313 L13.6291254,41.8750313 L13.6291254,36.6250438 L13.8752185,36.6250438 C14.1486556,36.6250438 14.3810765,36.7207465 14.5724825,36.9121525 L18.5920041,40.9316742 C18.7834102,41.1230802 18.8791128,41.3555011 18.8791128,41.6289381 L18.8791128,41.8750313 Z" transform="translate(-2.5 -36.5)"/>
</svg>
