<svg xmlns="http://www.w3.org/2000/svg" width="11" height="7" viewBox="0 0 11 7">
  <path fill="#337C97" d="M4.46873935,26.0000072 L0.218749478,21.7500173 C0.0729163339,21.6041841 0,21.4271015 0,21.2187686 C0,21.0104356 0.0729163339,20.833353 0.218749478,20.6875198 L0.937497765,20.0000215 C1.08333091,19.8541883 1.2604135,19.781272 1.4687465,19.781272 C1.67707949,19.781272 1.85416209,19.8541883 2,20.0000215 L4.99998808,23.0000143 L7.99998093,20.0000215 C8.14581407,19.8541883 8.32289666,19.781272 8.53122966,19.781272 C8.73956266,19.781272 8.91664525,19.8541883 9.06247839,20.0000215 L9.78122668,20.6875198 C9.92705982,20.833353 9.99997616,21.0104356 9.99997616,21.2187686 C9.99997616,21.4271015 9.92705982,21.6041841 9.78122668,21.7500173 L5.53123681,26.0000072 C5.38540367,26.1458403 5.20832107,26.2187566 4.99998808,26.2187566 C4.79165508,26.2187566 4.61457249,26.1458403 4.46873935,26.0000072 Z" transform="translate(.5 -19.25)"/>
</svg>
