<svg xmlns="http://www.w3.org/2000/svg" width="15" height="22" viewBox="0 0 15 22">
  <path fill="#2E0057" d="M11.0041316,57.6249937 C9.69163474,57.6249937 8.47484056,57.2968695 7.35374969,56.6406211 C6.23265882,55.9843727 5.34398886,55.0957027 4.68774042,53.9746118 C4.03149199,52.853521 3.70336777,51.6367268 3.70336777,50.3242299 C3.70336777,49.2578262 3.94946093,48.2050941 4.44164726,47.1660343 C4.74242759,46.5371298 5.3234811,45.6074443 6.18480717,44.3769785 C7.04613324,43.1465126 7.69554554,42.16214 8.13304471,41.4238605 C8.84398031,40.1933947 9.39085442,38.8945694 9.7736658,37.5273854 C9.91038401,37.144574 10.1496417,36.8779731 10.4914375,36.7275826 C10.8332334,36.5771922 11.1818654,36.5771922 11.5373335,36.7275826 C11.8928016,36.8779731 12.1252225,37.144574 12.2345974,37.5273854 C12.6447527,38.8945694 13.1916262,40.2070663 13.8752185,41.464876 C14.3127177,42.2031555 14.96213,43.180692 15.8234561,44.3974862 C16.6847821,45.6142804 17.2658356,46.5371298 17.566616,47.1660343 C18.0588023,48.1777508 18.3048955,49.2304823 18.3048955,50.3242299 C18.3048955,51.6367268 17.9767712,52.853521 17.3205228,53.9746118 C16.6642744,55.0957027 15.7756044,55.9843727 14.6545135,56.6406211 C13.5334227,57.2968695 12.3166285,57.6249937 11.0041316,57.6249937 Z M9.24046395,50.5703231 C9.21312005,50.4609481 9.14476126,50.406261 9.03538631,50.406261 C8.92601136,50.406261 8.85765257,50.4609481 8.83030867,50.5703231 C8.69359046,50.9531344 8.46116893,51.376962 8.13304471,51.8418044 C7.9689826,52.0878976 7.85960765,52.2656313 7.80492049,52.3750063 C7.72288944,52.5664123 7.68187391,52.7714899 7.68187391,52.9902392 C7.68187391,53.3457073 7.81175662,53.6601592 8.07152142,53.9335963 C8.33128622,54.2070333 8.65257493,54.3437516 9.03538631,54.3437516 C9.41819769,54.3437516 9.7394864,54.2070333 9.9992512,53.9335963 C10.259016,53.6601592 10.3888987,53.3457073 10.3888987,52.9902392 C10.3888987,52.7714899 10.3478832,52.5664123 10.2658521,52.3750063 C10.211165,52.2656313 10.10179,52.0878976 9.93772791,51.8418044 C9.60960369,51.376962 9.37718216,50.9531344 9.24046395,50.5703231 Z" transform="translate(-3.5 -36.588)"/>
</svg>
