<svg xmlns="http://www.w3.org/2000/svg" width="13" height="19" viewBox="0 0 13 19">
  <path fill="#FFF" d="M82.6015456,-3.74996245 C83.6093558,-3.74996245 84.587869,-3.50972883 85.5370854,-3.02926104 C86.4863019,-2.54879326 87.253878,-1.91012326 87.8398143,-1.11324999 C88.4726253,-0.246064374 88.7890308,0.67971449 88.7890308,1.66408714 C88.7890308,2.4375228 88.6249685,3.1172085 88.2968445,3.70314478 C88.0155952,4.19533111 87.6288773,4.64064272 87.136691,5.0390791 C86.8320041,5.27345372 86.3749739,5.56642159 85.7656005,5.91798325 C85.2734142,6.19923258 84.9452902,6.41016958 84.7812279,6.55079424 C84.4999785,6.78516886 84.3593539,7.03126203 84.3593539,7.28907373 L84.3593539,7.50001073 C84.3593539,7.73438535 84.277323,7.93360327 84.1132607,8.09766555 C83.9491984,8.26172784 83.7499805,8.34375872 83.5156059,8.34375872 L80.9843619,8.34375872 C80.7499873,8.34375872 80.5507694,8.26172784 80.3867071,8.09766555 C80.2226448,7.93360327 80.1406139,7.73438535 80.1406139,7.50001073 L80.1406139,7.14844907 C80.1406139,6.21095112 80.4453009,5.41407838 81.0546743,4.75782977 C81.4296735,4.38283048 82.0624845,3.94923794 82.9531072,3.45705162 L83.0234196,3.42189545 C83.6562306,3.07033379 84.0781045,2.78908446 84.2890415,2.57814746 C84.5937285,2.29689813 84.7460717,1.98049264 84.7460717,1.62893098 C84.7460717,1.11330703 84.4765409,0.691433033 83.9374799,0.363308994 C83.4452936,0.0351849552 82.9062325,-0.128877332 82.3202962,-0.128877332 C81.6874852,-0.128877332 81.1484242,0.0234658755 80.7031126,0.328152828 C80.3515509,0.562527448 79.9179584,0.984401442 79.4023344,1.59377481 C79.2617098,1.78127418 79.0800694,1.89260222 78.8574139,1.92775839 C78.6347583,1.96291456 78.4296803,1.91018031 78.242181,1.76955564 L76.7304658,0.609402157 C76.5429664,0.468777493 76.4316384,0.287137122 76.3964822,0.0644815816 C76.3613261,-0.158173959 76.4140603,-0.363251952 76.554685,-0.550751327 C77.304683,-1.60543631 78.1367125,-2.39059051 79.0507728,-2.90621446 C80.0585831,-3.46871312 81.2421736,-3.74996245 82.6015456,-3.74996245 Z M82.2499839,9.36328754 C82.9296696,9.36328754 83.5038873,9.60352116 83.972636,10.0839889 C84.4413848,10.5644567 84.6757594,11.1386739 84.6757594,11.8066411 C84.6757594,12.4746082 84.4413848,13.0488254 83.972636,13.5292932 C83.5038873,14.009761 82.9296696,14.2499946 82.2499839,14.2499946 C81.5702982,14.2499946 80.9960805,14.009761 80.5273318,13.5292932 C80.0585831,13.0488254 79.8242084,12.4746082 79.8242084,11.8066411 C79.8242084,11.1386739 80.0585831,10.5644567 80.5273318,10.0839889 C80.9960805,9.60352116 81.5702982,9.36328754 82.2499839,9.36328754 Z" transform="translate(-76 3.86)"/>
</svg>
