<svg xmlns="http://www.w3.org/2000/svg" width="86" height="86" viewBox="0 0 86 86">
  <g fill="none" fill-rule="evenodd" transform="translate(.5 -.176)">
    <path fill="#6BA2B6" d="M37.539855,55.9746468 C38.2543969,55.9746468 38.8343149,56.5545649 38.8343149,57.2691067 C38.8343149,57.9836486 38.2543969,58.5635666 37.539855,58.5635666 L32.3620154,58.5635666 C31.6461791,58.5635666 31.0675555,57.9836486 31.0675555,57.2691067 C31.0675555,56.5545649 31.6461791,55.9746468 32.3620154,55.9746468 L37.539855,55.9746468 Z M53.0733738,55.9746468 C53.7879157,55.9746468 54.3678337,56.5545649 54.3678337,57.2691067 C54.3678337,57.9836486 53.7879157,58.5635666 53.0733738,58.5635666 L47.8955342,58.5635666 C47.1796979,58.5635666 46.6010743,57.9836486 46.6010743,57.2691067 C46.6010743,56.5545649 47.1796979,55.9746468 47.8955342,55.9746468 L53.0733738,55.9746468 Z M37.539855,46.9134275 C38.2543969,46.9134275 38.8343149,47.4933455 38.8343149,48.2078874 C38.8343149,48.9224293 38.2543969,49.5023473 37.539855,49.5023473 L32.3620154,49.5023473 C31.6461791,49.5023473 31.0675555,48.9224293 31.0675555,48.2078874 C31.0675555,47.4933455 31.6461791,46.9134275 32.3620154,46.9134275 L37.539855,46.9134275 Z M53.0733738,46.9134275 C53.7879157,46.9134275 54.3678337,47.4933455 54.3678337,48.2078874 C54.3678337,48.9224293 53.7879157,49.5023473 53.0733738,49.5023473 L47.8955342,49.5023473 C47.1796979,49.5023473 46.6010743,48.9224293 46.6010743,48.2078874 C46.6010743,47.4933455 47.1796979,46.9134275 47.8955342,46.9134275 L53.0733738,46.9134275 Z M37.539855,37.8522082 C38.2543969,37.8522082 38.8343149,38.4321262 38.8343149,39.1466681 C38.8343149,39.8612099 38.2543969,40.441128 37.539855,40.441128 L32.3620154,40.441128 C31.6461791,40.441128 31.0675555,39.8612099 31.0675555,39.1466681 C31.0675555,38.4321262 31.6461791,37.8522082 32.3620154,37.8522082 L37.539855,37.8522082 Z M53.0733738,37.8522082 C53.7879157,37.8522082 54.3678337,38.4321262 54.3678337,39.1466681 C54.3678337,39.8612099 53.7879157,40.441128 53.0733738,40.441128 L47.8955342,40.441128 C47.1796979,40.441128 46.6010743,39.8612099 46.6010743,39.1466681 C46.6010743,38.4321262 47.1796979,37.8522082 47.8955342,37.8522082 L53.0733738,37.8522082 Z M37.539855,19.7297695 C38.2543969,19.7297695 38.8343149,20.3096876 38.8343149,21.0242294 C38.8343149,21.7387713 38.2543969,22.3186893 37.539855,22.3186893 L32.3620154,22.3186893 C31.6461791,22.3186893 31.0675555,21.7387713 31.0675555,21.0242294 C31.0675555,20.3096876 31.6461791,19.7297695 32.3620154,19.7297695 L37.539855,19.7297695 Z M53.0733738,19.7297695 C53.7879157,19.7297695 54.3678337,20.3096876 54.3678337,21.0242294 C54.3678337,21.7387713 53.7879157,22.3186893 53.0733738,22.3186893 L47.8955342,22.3186893 C47.1796979,22.3186893 46.6010743,21.7387713 46.6010743,21.0242294 C46.6010743,20.3096876 47.1796979,19.7297695 47.8955342,19.7297695 L53.0733738,19.7297695 Z M37.539855,28.7909888 C38.2543969,28.7909888 38.8343149,29.3709069 38.8343149,30.0854487 C38.8343149,30.7999906 38.2543969,31.3799087 37.539855,31.3799087 L32.3620154,31.3799087 C31.6461791,31.3799087 31.0675555,30.7999906 31.0675555,30.0854487 C31.0675555,29.3709069 31.6461791,28.7909888 32.3620154,28.7909888 L37.539855,28.7909888 Z M53.0733738,28.7909888 C53.7879157,28.7909888 54.3678337,29.3709069 54.3678337,30.0854487 C54.3678337,30.7999906 53.7879157,31.3799087 53.0733738,31.3799087 L47.8955342,31.3799087 C47.1796979,31.3799087 46.6010743,30.7999906 46.6010743,30.0854487 C46.6010743,29.3709069 47.1796979,28.7909888 47.8955342,28.7909888 L53.0733738,28.7909888 Z M33.6564753,83.1583048 L41.4232347,83.1583048 L41.4232347,67.624786 L33.6564753,67.624786 L33.6564753,83.1583048 Z M44.0121545,83.1583048 L51.7789139,83.1583048 L51.7789139,67.624786 L44.0121545,67.624786 L44.0121545,83.1583048 Z M14.2395767,57.7001619 L14.2395767,61.0722299 C19.3475155,60.4353557 23.3007961,56.0782036 23.3007961,50.7968072 C23.3007961,45.0778834 18.6640407,40.441128 12.9451168,40.441128 C7.22489851,40.441128 2.58943759,45.0778834 2.58943759,50.7968072 C2.58943759,56.0782036 6.54271814,60.4353557 11.6506569,61.0722299 L11.6506569,57.7001619 L8.02487473,52.8679431 C7.5964085,52.2957918 7.71290989,51.4841654 8.28376671,51.0556992 C8.85721245,50.627233 9.66754435,50.7424399 10.097305,51.3145912 L12.9451168,55.1112421 L15.7916342,51.3145912 C16.2213948,50.7424399 17.0330212,50.627233 17.6051725,51.0556992 C18.1760293,51.4841654 18.2925307,52.2957918 17.8640645,52.8679431 L14.2395767,57.7001619 Z M73.7847323,57.7001619 L73.7847323,61.0722299 C78.8926711,60.4353557 82.8459516,56.0782036 82.8459516,50.7968072 C82.8459516,45.0778834 78.2091963,40.441128 72.4902724,40.441128 C66.7700541,40.441128 62.1345932,45.0778834 62.1345932,50.7968072 C62.1345932,56.0782036 66.0878737,60.4353557 71.1958125,61.0722299 L71.1958125,57.7001619 L67.5700303,52.8679431 C67.1415641,52.2957918 67.2580655,51.4841654 67.8289223,51.0556992 C68.402368,50.627233 69.2126999,50.7424399 69.6424606,51.3145912 L72.4902724,55.1112421 L75.3367897,51.3145912 C75.7665504,50.7424399 76.5781768,50.627233 77.1503281,51.0556992 C77.7211849,51.4841654 77.8376863,52.2957918 77.40922,52.8679431 L73.7847323,57.7001619 Z M20.7118762,83.1583048 L20.7118762,61.1537809 C18.8724487,62.5349696 16.65245,63.4385026 14.2395767,63.6779777 L14.2395767,83.1583048 L20.7118762,83.1583048 Z M71.1958125,83.1583048 L71.1958125,63.6779777 C68.7816448,63.4385026 66.561646,62.5349696 64.723513,61.1537809 L64.723513,83.1583048 L71.1958125,83.1583048 Z M28.4786357,10.6685502 L56.9567536,10.6685502 L56.9567536,2.90179077 L28.4786357,2.90179077 L28.4786357,10.6685502 Z M54.3678337,83.1583048 L62.1345932,83.1583048 L62.1345932,58.5648611 C60.4660344,56.3448624 59.5456734,53.6394412 59.5456734,50.7968072 C59.5456734,47.9541733 60.4660344,45.2487521 62.1345932,43.0287533 L62.1345932,13.25747 L23.3007961,13.25747 L23.3007961,43.0287533 C24.9680604,45.2487521 25.8897159,47.9541733 25.8897159,50.7968072 C25.8897159,53.6394412 24.9680604,56.3448624 23.3007961,58.5648611 L23.3007961,83.1583048 L31.0675555,83.1583048 L31.0675555,66.3303261 C31.0675555,65.6157842 31.6461791,65.0358662 32.3620154,65.0358662 L53.0733738,65.0358662 C53.7879157,65.0358662 54.3678337,65.6157842 54.3678337,66.3303261 L54.3678337,83.1583048 Z M25.8897159,10.6685502 L25.8897159,1.60733086 C25.8897159,0.892788996 26.4683394,0.312870959 27.1841758,0.312870959 L58.2512135,0.312870959 C58.9657553,0.312870959 59.5456734,0.892788996 59.5456734,1.60733086 L59.5456734,10.6685502 L63.4290531,10.6685502 C64.1435949,10.6685502 64.723513,11.2484682 64.723513,11.9630101 L64.723513,40.4398335 C66.8865555,38.8152863 69.5751487,37.8522082 72.4902724,37.8522082 C79.63828,37.8522082 85.4348714,43.6475052 85.4348714,50.7968072 C85.4348714,57.5098763 80.3256382,63.0281588 73.7847323,63.6779777 L73.7847323,83.1583048 L84.1404115,83.1583048 C84.8549534,83.1583048 85.4348714,83.7369284 85.4348714,84.4527647 C85.4348714,85.168601 84.8549534,85.7472246 84.1404115,85.7472246 L1.29497769,85.7472246 C0.579141361,85.7472246 0.000517783962,85.168601 0.000517783962,84.4527647 C0.000517783962,83.7369284 0.579141361,83.1583048 1.29497769,83.1583048 L11.6506569,83.1583048 L11.6506569,63.6779777 C5.10845656,63.0281588 0.000517783962,57.5098763 0.000517783962,50.7968072 C0.000517783962,43.6475052 5.79581477,37.8522082 12.9451168,37.8522082 C15.8589461,37.8522082 18.5475393,38.8152863 20.7118762,40.4398335 L20.7118762,11.9630101 C20.7118762,11.2484682 21.2904998,10.6685502 22.0063361,10.6685502 L25.8897159,10.6685502 Z"/>
    <g transform="translate(44.012 .313)">
      <path fill="#6BA2B6" d="M22.2781727 26.7247719C22.2781727 27.1545326 22.1021262 27.5040368 21.8613566 27.8121183 21.4976134 27.9868704 21.1364591 28.174567 20.7740103 28.174567 20.3584887 28.174567 19.9947455 28.0541823 19.6996086 27.7448063 19.4575446 27.5040368 19.3371598 27.1545326 19.3371598 26.7247719 19.3371598 26.3752678 19.4575446 25.9455071 19.7539759 25.7034431 20.3041214 25.1675367 21.2568439 25.1675367 21.8613566 25.7034431 22.1021262 25.9455071 22.2781727 26.3752678 22.2781727 26.7247719M22.2238054 12.9351495L22.2238054 20.6695474C22.2238054 21.5148297 21.5519807 22.1724154 20.7740103 22.1724154 19.9947455 22.1724154 19.3371598 21.5148297 19.3371598 20.7355649L19.3371598 12.9351495C19.3371598 12.1558846 19.9947455 11.498299 20.7740103 11.498299 21.5519807 11.498299 22.2238054 12.1558846 22.2238054 12.9351495"/>
      <path fill="#6BA2B6" d="M40.9277155,31.2225023 C41.2357969,31.4645663 41.410549,31.880088 41.410549,32.3098486 C41.2888698,33.0891135 40.6312841,33.7466991 39.7860018,33.7466991 L1.76124215,33.7466991 C1.22404129,33.7466991 0.75415234,33.4515623 0.512088338,33.0218016 C0.271318796,32.5519126 0.271318796,32.0017672 0.566455654,31.5318782 L19.5794827,0.637003719 C20.1153891,-0.195333999 21.5522396,-0.195333999 22.1023851,0.637003719 L40.9277155,31.2225023 Z M37.0870529,30.8729982 L20.7742692,4.23430779 L4.35275087,30.8729982 L37.0870529,30.8729982 Z"/>
      <path fill="#A6C7D3" d="M20.7738809,4.23482558 L37.087959,30.8735159 L4.35236253,30.8735159 L20.7738809,4.23482558 Z M21.8612272,27.8121183 C22.1019967,27.5040368 22.2780433,27.1545326 22.2780433,26.7247719 C22.2780433,26.3752678 22.1019967,25.9455071 21.8612272,25.7034431 C21.2567144,25.1675367 20.3039919,25.1675367 19.7538465,25.7034431 C19.4574152,25.9455071 19.3370304,26.3752678 19.3370304,26.7247719 C19.3370304,27.1545326 19.4574152,27.5040368 19.6994792,27.7448063 C19.994616,28.0541823 20.3583592,28.174567 20.7738809,28.174567 C21.1363296,28.174567 21.4987784,27.9868704 21.8612272,27.8121183 L21.8612272,27.8121183 Z M22.223676,12.9348906 C22.223676,12.1569202 21.5531457,11.4980401 20.7738809,11.4980401 C19.994616,11.4980401 19.3370304,12.1569202 19.3370304,12.9348906 L19.3370304,20.7366004 C19.3370304,21.5158653 19.994616,22.1721565 20.7738809,22.1721565 C21.5531457,22.1721565 22.223676,21.5158653 22.223676,20.6692885 L22.223676,12.9348906 Z"/>
    </g>
  </g>
</svg>
