<svg xmlns="http://www.w3.org/2000/svg" xmlns:xlink="http://www.w3.org/1999/xlink" width="91" height="118" viewBox="0 0 91 118">
  <defs>
    <polygon id="icon-bill-a" points="0 .001 89.551 .001 89.551 116.808 0 116.808"/>
  </defs>
  <g fill="none" fill-rule="evenodd" transform="translate(.5 -.176)">
    <g transform="translate(61 .324)">
      <polygon fill="#A6C7D3" points="22.492 24.776 3.725 24.776 3.725 6.035"/>
      <path fill="#6BA2B6" d="M3.20533542,0.519015927 L28.0334791,25.2952451 C28.5409441,25.8014122 28.6966878,26.5671521 28.4241363,27.2290629 C28.1515848,27.8909736 27.5026527,28.3192689 26.7745508,28.3192689 L1.94640706,28.3192689 C0.973008853,28.3192689 0.18131164,27.5275716 0.18131164,26.5411948 L0.18131164,1.76496564 C0.18131164,1.05114028 0.609606854,0.402208141 1.2728155,0.129656642 C1.94640706,-0.129916215 2.69916835,0.0128488564 3.20533542,0.519015927 L3.20533542,0.519015927 Z M3.72448113,24.7760994 L22.4915987,24.7760994 L3.72448113,6.03493913 L3.72448113,24.7760994 Z"/>
    </g>
    <g transform="translate(0 .687)">
      <mask id="icon-bill-b" fill="#fff">
        <use xlink:href="#icon-bill-a"/>
      </mask>
      <path fill="#6BA2B6" d="M3.54563543,113.267861 L86.0054426,113.267861 L86.0054426,28.316154 L62.9527772,28.316154 C61.9715918,28.316154 61.1798946,27.5257546 61.1798946,26.547165 L61.1798946,3.5412227 L3.54563543,3.5412227 L3.54563543,113.267861 Z M87.7796231,116.808434 L1.77405069,116.808434 C0.79286529,116.808434 -0.000129786428,116.015439 -0.000129786428,115.038147 L-0.000129786428,1.76834009 C-0.000129786428,0.79104828 0.79286529,0.000648932141 1.77405069,0.000648932141 L62.9527772,0.000648932141 C63.9339626,0.000648932141 64.7256599,0.79104828 64.7256599,1.76834009 L64.7256599,24.7768781 L87.7796231,24.7768781 C88.7595106,24.7768781 89.5512078,25.5698732 89.5512078,26.547165 L89.5512078,115.038147 C89.5512078,116.015439 88.7595106,116.808434 87.7796231,116.808434 L87.7796231,116.808434 Z" mask="url(#icon-bill-b)"/>
    </g>
    <path fill="#6BA2B6" d="M73.1493182 38.0283453L43.9447761 38.0283453C42.9648886 38.0283453 42.1718935 37.2379459 42.1718935 36.2593563 42.1718935 35.2807666 42.9648886 34.4903672 43.9447761 34.4903672L73.1493182 34.4903672C74.1292057 34.4903672 74.9209029 35.2807666 74.9209029 36.2593563 74.9209029 37.2379459 74.1292057 38.0283453 73.1493182 38.0283453M73.1493182 49.7091238L43.9447761 49.7091238C42.9648886 49.7091238 42.1718935 48.9174266 42.1718935 47.9388369 42.1718935 46.9615451 42.9648886 46.1698479 43.9447761 46.1698479L73.1493182 46.1698479C74.1292057 46.1698479 74.9209045 46.9615451 74.9209045 47.9388369 74.9222008 48.9174266 74.1292057 49.7091238 73.1493182 49.7091238M73.1493182 61.3886045L44.7767071 61.3886045C43.7955217 61.3886045 43.0025266 60.5982051 43.0025266 59.6196155 43.0025266 58.6410258 43.7955217 57.8506265 44.7767071 57.8506265L73.1493182 57.8506265C74.1292057 57.8506265 74.9209029 58.6410258 74.9209029 59.6196155 74.9209029 60.5982051 74.1292057 61.3886045 73.1493182 61.3886045M73.1493182 73.0726277L44.7767071 73.0726277C43.7955217 73.0726277 43.0025266 72.2822284 43.0025266 71.3036387 43.0025266 70.325049 43.7955217 69.5346497 44.7767071 69.5346497L73.1493182 69.5346497C74.1292057 69.5346497 74.9209029 70.325049 74.9209029 71.3036387 74.9209029 72.2822284 74.1292057 73.0726277 73.1493182 73.0726277M73.1493182 84.7534062L14.7415319 84.7534062C13.7616443 84.7534062 12.9673514 83.961709 12.9673514 82.9844172 12.9673514 82.0058276 13.7603465 81.2128325 14.7415319 81.2128325L73.1493182 81.2128325C74.1292057 81.2128325 74.9209045 82.0058276 74.9209045 82.9844172 74.9222008 83.961709 74.1292057 84.7534062 73.1493182 84.7534062M73.1493182 96.4328869L14.7415319 96.4328869C13.7616443 96.4328869 12.9673514 95.6424876 12.9673514 94.6638979 12.9673514 93.6853082 13.7603465 92.893611 14.7415319 92.893611L73.1493182 92.893611C74.1292057 92.893611 74.9209029 93.6853082 74.9209029 94.6638979 74.9209029 95.6424876 74.1292057 96.4328869 73.1493182 96.4328869M36.6024983 62.9032121C36.6024983 60.8538844 35.9302046 59.1770438 34.5856172 57.873988 33.2423277 56.5696344 30.8737253 55.3120039 27.4785124 54.1023944 23.5953024 52.8720191 20.7218309 51.3924538 18.8580978 49.6611028 16.991769 47.928454 16.0560088 45.4884692 16.0560088 42.3424462 16.0560088 39.3249117 16.991769 36.8667567 18.8580978 34.9653856 20.7218309 33.0640144 23.2604535 31.9854892 26.4700718 31.7272142L26.4700718 26.0815046 29.3240754 26.0815046 29.3240754 31.7272142C32.5895019 32.0244251 35.1216351 33.2223538 36.9217729 35.3274897 38.7245064 37.4326256 39.597969 40.2645654 39.5421609 43.8207136L39.4863527 43.9582872 36.3221596 43.9582872C36.3221596 41.2210914 35.5771855 38.9887648 34.0833437 37.256116 32.5907998 35.5247651 30.5090255 34.6564939 27.8419144 34.6564939 25.0774635 34.6564939 22.9788169 35.3768085 21.5420811 36.807055 20.109239 38.2398972 19.3876264 40.0659922 19.3876264 42.2827444 19.3876264 44.4086461 20.0209842 46.1153376 21.2928912 47.4080104 22.5609046 48.7045769 25.0060809 49.9492287 28.6245265 51.1380724 32.4688005 52.422958 35.3202084 53.9180977 37.1761543 55.6208956 39.0321002 57.3249914 39.9600732 59.7351254 39.9600732 62.8409146 39.9600732 65.9350231 38.9944622 68.4035609 37.0632401 70.2452304 35.1333159 72.0920912 32.5246087 73.1524464 29.2423099 73.432785L29.2423099 78.7397521 26.3883064 78.7397521 26.3883064 73.4613381C23.0086678 73.2536798 20.2065788 72.1790481 17.9755501 70.2322517 15.7445214 68.2867532 14.6685919 65.3483884 14.743868 61.4184554L14.8269314 61.2523287 17.9612736 61.2523287C17.9612736 64.5502019 18.9035231 66.9213999 20.788022 68.3763058 22.6725209 69.8273181 24.9515706 70.5541221 27.6186817 70.5541221 30.3818348 70.5541221 32.5674382 69.8312117 34.1819814 68.3905823 35.7952267 66.9486551 36.6024983 65.1186664 36.6024983 62.9032121"/>
  </g>
</svg>
