<svg xmlns="http://www.w3.org/2000/svg" width="91" height="87" viewBox="0 0 91 87">
  <g fill="#6BA2B6" fill-rule="evenodd" transform="translate(.5 .628)">
    <polygon fill-opacity=".601" points="81.943 57.38 83.473 67.581 66.295 67.581 58.134 57.38"/>
    <path fill-opacity=".601" d="M45.1284221,14.5362653 C48.5355186,14.5362653 51.2489548,17.2497014 51.2489548,20.656798 C51.2489548,24.0638946 48.5355186,26.7773307 45.1284221,26.7773307 C41.7213255,26.7773307 39.0078893,24.0638946 39.0078893,20.656798 C39.0078893,17.2497014 41.7213255,14.5362653 45.1284221,14.5362653"/>
    <path d="M36.8043955,81.8621254 L9.71083725,48.0053785 L4.64099596,81.8621254 L36.8043955,81.8621254 Z M83.4734577,67.5808824 L81.9433245,57.3799945 L58.1344521,57.3799945 L66.2951624,67.5808824 L83.4734577,67.5808824 Z M85.6166642,81.8621254 L84.086531,71.6612375 L69.5798483,71.6612375 L77.7405587,81.8621254 L85.6166642,81.8621254 Z M89.9816242,83.5860755 C90.1662602,84.7387758 89.1461714,85.9424806 87.9720492,85.9424806 L2.28459085,85.9424806 C1.11148875,85.9424806 0.0913999556,84.7387758 0.275015938,83.5860755 L6.39554868,42.7825239 C6.75257976,41.6910289 7.25242326,41.0585738 8.4051236,41.0585738 L27.5317884,41.0585738 C28.1846452,42.4254928 28.8579038,43.77201 29.5107607,45.138929 L12.648693,45.138929 L26.7973245,62.8272686 L34.7642179,56.1048835 C35.3762712,57.3595927 35.9781236,58.6143019 36.579976,59.8690111 L29.3475465,65.9895438 L42.037451,81.8621254 L72.5075032,81.8621254 L54.1153023,58.879525 C55.0140005,57.0229634 55.9208594,55.1562009 56.8287385,53.2996393 L81.3108694,53.2996393 L80.0969638,45.138929 L60.7764821,45.138929 C61.4395398,43.77201 62.1332002,42.4254928 62.786057,41.0585738 L81.8515165,41.0585738 C82.81142,41.0585738 83.7080781,41.8338413 83.8610914,42.7825239 L89.9816242,83.5860755 Z"/>
    <path d="M60.1140364,27.6037047 C60.7668933,25.8593528 61.4503527,22.3706492 61.4503527,20.4018778 C61.4503527,11.1700743 54.1863005,4.33547937 45.0983294,4.33547937 C35.9981173,4.33547937 28.8075115,11.1598734 28.8075115,20.4018778 C28.8075115,22.3604483 29.4899509,25.8593528 30.1438278,27.6037047 C34.856638,38.1004183 40.3039121,48.321708 45.1289321,58.787819 C50.1273672,48.3931142 55.1655857,38.0086103 60.1140364,27.6037047 M63.9393694,29.1338379 C58.3992672,40.9158634 52.5653794,52.59588 46.9742727,64.3575038 C46.6488644,65.061365 45.9031795,65.5408068 45.1289321,65.5408068 C44.3536646,65.5408068 43.6079797,65.061365 43.2825714,64.3575038 C37.6210786,52.6264827 31.9493849,40.8750598 26.3184948,29.1338379 C25.4004149,26.6958256 24.7271563,23.1663184 24.7271563,20.4018778 C24.7271563,8.99728514 33.9079554,0.255124206 45.0983294,0.255124206 C56.2887035,0.255124206 65.5307079,8.99728514 65.5307079,20.4018778 C65.5307079,23.1561175 64.8666301,26.6958256 63.9393694,29.1338379 Z"/>
    <path d="M51.2489548,20.656798 C51.2489548,17.2497014 48.5355186,14.5362653 45.1284221,14.5362653 C41.7213255,14.5362653 39.0078893,17.2497014 39.0078893,20.656798 C39.0078893,24.0638946 41.7213255,26.7773307 45.1284221,26.7773307 C48.5355186,26.7773307 51.2489548,24.0638946 51.2489548,20.656798 M55.32931,20.656798 C55.32931,26.2672863 50.7389104,30.8576859 45.1284221,30.8576859 C39.5179337,30.8576859 34.9275342,26.2672863 34.9275342,20.656798 C34.9275342,15.0463097 39.5179337,10.4559101 45.1284221,10.4559101 C50.7389104,10.4559101 55.32931,15.0463097 55.32931,20.656798 Z"/>
    <polygon fill-opacity=".601" points="9.711 48.005 36.804 81.862 4.641 81.862"/>
  </g>
</svg>
