<svg xmlns="http://www.w3.org/2000/svg" width="91" height="111" viewBox="0 0 91 111">
  <g fill="none" fill-rule="evenodd" transform="translate(.004 -.176)">
    <path fill="#A6C7D3" d="M76.8671508 33.9575385C78.5213046 30.8387692 80.8474585 28.1335385 83.6543508 25.9969231 83.7405046 26.9618462 83.79392 28.0818462 83.79392 29.288 83.8783508 31.7003077 83.5009969 34.1126154 82.67392 36.3870769 82.3620431 37.1796923 81.7434585 37.8 80.9508431 38.1101538 79.3311508 38.7649231 77.5046892 37.9723077 76.8481969 36.3698462 76.5397662 35.5944615 76.5397662 34.7329231 76.8671508 33.9575385M64.8392123 29.288C64.9253662 31.7003077 64.5462892 34.1126154 63.7209354 36.3870769 63.4090585 37.1796923 62.7904738 37.8 61.9978585 38.1101538 60.3764431 38.7649231 58.5517046 37.9723077 57.8952123 36.3698462 57.5850585 35.5944615 57.5850585 34.7329231 57.9124431 33.9575385 59.5665969 30.8387692 61.8927508 28.1335385 64.7013662 25.9969231 64.78752 26.9618462 64.8392123 28.0818462 64.8392123 29.288M75.1776738 8.61107692C75.2638277 11.0233846 74.8847508 13.4356923 74.0593969 15.7101538 73.74752 16.5027692 73.1289354 17.1230769 72.33632 17.4332308 70.7149046 18.088 68.8901662 17.2953846 68.2336738 15.6929231 67.92352 14.9175385 67.92352 14.056 68.2509046 13.2806154L68.2509046 13.2461538C69.9050585 10.1446154 72.2312123 7.43938462 75.0398277 5.32 75.1259815 6.28492308 75.1776738 7.40492308 75.1776738 8.61107692"/>
    <path fill="#6BA2B6" d="M78.0903631,1.83904 C78.1592862,2.21811692 79.7083323,11.1781169 77.2288246,17.0538092 C76.1932554,19.4833477 73.7999015,21.0685785 71.1618708,21.0685785 C70.2848246,21.0685785 69.4060554,20.8962708 68.5772554,20.5516554 L68.5445169,20.5171938 C65.2362092,19.0698092 63.7009477,15.2273477 65.0983631,11.9018092 C67.5778708,6.02611692 75.10944,0.925809231 75.4368246,0.71904 C75.9175631,0.391655385 76.5223631,0.339963077 77.0547938,0.563963077 C77.5906708,0.787963077 77.9852554,1.27042462 78.0903631,1.83904 M72.3352862,17.4328862 C73.1279015,17.1227323 73.7464862,16.5024246 74.0583631,15.7098092 C74.88544,13.4353477 75.2627938,11.02304 75.1783631,8.61073231 C75.1783631,7.40457846 75.1249477,6.28457846 75.0387938,5.31965538 C72.2319015,7.43904 69.9057477,10.1442708 68.2515938,13.2458092 L68.2515938,13.2802708 C67.9242092,14.0556554 67.9242092,14.9171938 68.23264,15.6925785 C68.8891323,17.29504 70.7155938,18.0876554 72.3352862,17.4328862"/>
    <path fill="#6BA2B6" d="M85.7399631,54.0143262 C83.4672246,52.53248 79.2439631,50.4130954 75.7978092,51.6192492 C73.79904,52.3429415 71.9553477,53.4629415 70.3873477,54.8930954 C68.6143015,56.4955569 67.6131938,58.7872492 67.6304246,61.1823262 C67.6304246,62.1300185 66.85504,62.9054031 65.9073477,62.9054031 C64.9596554,62.9054031 64.1842708,62.1300185 64.1842708,61.1823262 L64.1842708,59.6487877 C64.2015015,57.8912492 63.5829169,56.1854031 62.4611938,54.8414031 C61.4101169,53.5835569 60.0144246,52.6530954 58.4636554,52.1189415 C55.7756554,51.2401723 52.8291938,51.5847877 50.3996554,53.0494031 L50.3996554,98.6420185 C50.3996554,105.310326 45.0064246,110.703557 38.3381169,110.703557 C31.6698092,110.703557 26.2765785,105.310326 26.2765785,98.6420185 L26.2765785,93.4727877 C26.2765785,90.61248 28.5855015,88.3035569 31.4458092,88.3035569 C34.3061169,88.3035569 36.61504,90.61248 36.61504,93.4727877 L36.61504,98.6420185 C36.61504,99.5897108 37.3904246,100.365095 38.3381169,100.365095 C39.2858092,100.365095 40.0611938,99.5897108 40.0611938,98.6420185 L40.0611938,53.1355569 C37.6488862,51.63648 34.7024246,51.2746338 31.9971938,52.1189415 C30.4464246,52.6530954 29.0507323,53.5835569 27.9996554,54.8414031 C26.8796554,56.1854031 26.2593477,57.8912492 26.2765785,59.6487877 L26.2765785,61.1823262 C26.2765785,62.1300185 25.5011938,62.9054031 24.5535015,62.9054031 C23.6058092,62.9054031 22.8304246,62.1300185 22.8304246,61.1823262 C22.8993477,58.7355569 21.8827323,56.3921723 20.0735015,54.7552492 C18.5055015,53.3250954 16.6618092,52.2050954 14.66304,51.4814031 C11.1307323,50.2752492 7.01257846,52.3946338 4.75534769,53.8420185 C4.27288615,56.11648 3.97996308,58.4081723 3.87657846,60.7343262 C3.87657846,61.6820185 3.10119385,62.4574031 2.15350154,62.4574031 C1.20580923,62.4574031 0.430424615,61.6820185 0.430424615,60.7343262 C0.533809231,58.0463262 0.878424615,55.3927877 1.48150154,52.7737108 L1.68827077,51.9294031 C6.27165538,33.7854031 21.5036554,20.3109415 40.0784246,17.9847877 L40.0784246,14.2112492 C40.0784246,11.3509415 42.3873477,9.04201846 45.2476554,9.04201846 C48.1079631,9.04201846 50.4168862,11.3509415 50.4168862,14.2112492 L50.4168862,17.9503262 C55.20704,18.5189415 59.8593477,19.8801723 64.2015015,21.9650954 L65.0285785,21.3792492 C65.51104,21.0518646 66.1141169,21.0001723 66.6482708,21.2241723 C67.1824246,21.4481723 67.5787323,21.9306338 67.68384,22.4992492 C67.6993477,22.5854031 67.7855015,23.1023262 67.8906092,23.9121723 C70.5768862,25.4974031 73.0925785,27.3755569 75.3842708,29.4949415 C77.8138092,26.3589415 80.7258092,23.6192492 83.9996554,21.39648 C84.48384,21.0690954 85.0851938,21.0174031 85.6210708,21.2414031 C86.1535015,21.4654031 86.5515323,21.9478646 86.6531938,22.51648 C86.7221169,22.8955569 88.2746092,31.8555569 85.7916554,37.7312492 C85.4143015,38.6617108 84.8284554,39.5060185 84.0685785,40.1607877 C86.2069169,43.8309415 87.8076554,47.7940185 88.80704,51.9294031 C89.0672246,52.9287877 89.2722708,53.9454031 89.4445785,54.9620185 C89.7547323,56.8746338 89.9442708,58.80448 90.0304246,60.7343262 C90.0304246,61.6820185 89.25504,62.4574031 88.3073477,62.4574031 C87.3596554,62.4574031 86.5842708,61.6820185 86.5842708,60.7343262 C86.4981169,58.4770954 86.2069169,56.2198646 85.7399631,54.0143262 L85.7399631,54.0143262 Z M83.65504,25.9970954 C80.8464246,28.1337108 78.5219938,30.8389415 76.86784,33.9577108 C76.5387323,34.7330954 76.5387323,35.5946338 76.8488862,36.3700185 C77.5053785,37.97248 79.3301169,38.7650954 80.9515323,38.1103262 C81.7441477,37.8001723 82.3627323,37.1798646 82.6746092,36.3872492 C83.4999631,34.1127877 83.87904,31.70048 83.7928862,29.2881723 C83.7928862,28.0820185 83.7411938,26.9620185 83.65504,25.9970954 L83.65504,25.9970954 Z M80.8136862,41.5737108 C80.4328862,41.6426338 80.0538092,41.6770954 79.6747323,41.6770954 C78.7976862,41.6770954 77.9171938,41.5047877 77.0901169,41.1601723 C74.6088862,40.0746338 73.1287631,37.6450954 73.1287631,35.0949415 C73.1287631,34.2506338 73.2993477,33.3718646 73.6439631,32.5447877 C71.9725785,30.9250954 70.1461169,29.46048 68.2162708,28.1681723 C68.4058092,31.4075569 67.9405785,34.6469415 66.8378092,37.6967877 C65.8056862,40.1263262 63.4088862,41.7115569 60.7725785,41.7115569 C59.8938092,41.7115569 59.01504,41.5392492 58.1879631,41.1946338 C54.8796554,39.7472492 53.3461169,35.9047877 54.7418092,32.5792492 C56.3287631,29.4087877 58.5515323,26.6174031 61.2722708,24.3774031 C56.2064246,22.2063262 50.7442708,21.0863262 45.2304246,21.1033611 C27.4999631,21.2930954 11.8199631,32.6309415 6.08211692,49.39648 C9.08027077,47.82848 12.5781169,47.4666338 15.8347323,48.3798646 C18.2642708,49.2586338 20.5042708,50.6026338 22.4168862,52.3601723 C23.0716554,52.9632492 23.6402708,53.6352492 24.1399631,54.3589415 C24.4673477,53.7558646 24.8464246,53.1700185 25.2944246,52.6358646 C26.7762708,50.8610954 28.7061169,49.5170954 30.8944246,48.7589415 C34.9608862,47.5010954 39.3891938,48.2247877 42.8353477,50.74048 C43.2661169,51.0678646 43.5073477,51.5847877 43.5073477,52.1189415 L43.5073477,98.6420185 C43.5073477,101.502326 41.1984246,103.811249 38.3381169,103.811249 C35.4778092,103.811249 33.1688862,101.502326 33.1688862,98.6420185 L33.1688862,93.4727877 C33.1688862,92.5250954 32.3935015,91.7497108 31.4458092,91.7497108 C30.4981169,91.7497108 29.7227323,92.5250954 29.7227323,93.4727877 L29.7227323,98.6420185 C29.7227323,103.397711 33.5824246,107.257403 38.3381169,107.257403 C43.0938092,107.257403 46.9535015,103.397711 46.9535015,98.6420185 L46.9535015,52.1189415 C46.9535015,51.5503262 47.2136862,51.0334031 47.6771938,50.7060185 C51.1233477,48.1903262 55.5516554,47.4666338 59.6181169,48.72448 C61.8064246,49.4826338 63.7362708,50.8266338 65.2181169,52.6014031 C65.66784,53.1355569 66.0451938,53.7214031 66.3725785,54.32448 C66.8722708,53.6007877 67.4408862,52.9287877 68.0956554,52.3257108 C70.0082708,50.5681723 72.2482708,49.2241723 74.6778092,48.3454031 C77.9171938,47.4321723 81.3633477,47.7767877 84.3615015,49.3103262 C83.4482708,46.6223262 82.2593477,44.02048 80.8136862,41.5737108 L80.8136862,41.5737108 Z M64.7011938,25.9970954 C64.7873477,26.9620185 64.83904,28.0820185 64.83904,29.2881723 C64.9251938,31.70048 64.5461169,34.1127877 63.7207631,36.3872492 C63.4088862,37.1798646 62.7903015,37.8001723 61.9976862,38.1103262 C60.3762708,38.7650954 58.5515323,37.97248 57.89504,36.3700185 C57.5848862,35.5946338 57.5848862,34.7330954 57.9139938,33.9577108 C59.5681477,30.8389415 61.8925785,28.1337108 64.7011938,25.9970954 Z M45.2304246,12.4881723 C46.1781169,12.4881723 46.9535015,13.2635569 46.9535015,14.2112492 L46.9535015,14.2112492 L46.9535015,17.6574031 L43.5073477,17.6574031 L43.5073477,14.2112492 C43.5073477,13.2635569 44.2827323,12.4881723 45.2304246,12.4881723 Z"/>
  </g>
</svg>
