<svg xmlns="http://www.w3.org/2000/svg" width="21" height="21" viewBox="0 0 21 21">
  <path fill="#337C97" d="M211.354475,-1.77635684e-15 C213.186502,-1.77635684e-15 214.88181,0.458006929 216.4404,1.37402016 C217.99899,2.29003339 219.236292,3.52733534 220.152306,5.08592537 C221.068319,6.64451541 221.526326,8.33982366 221.526326,10.1718507 C221.526326,12.0038778 221.068319,13.6991861 220.152306,15.2577761 C219.236292,16.8163662 217.99899,18.0536681 216.4404,18.9696813 C214.88181,19.8856946 213.186502,20.3437015 211.354475,20.3437015 C209.522448,20.3437015 207.82714,19.8856946 206.26855,18.9696813 C204.70996,18.0536681 203.472658,16.8163662 202.556644,15.2577761 C201.640631,13.6991861 201.182624,12.0038778 201.182624,10.1718507 C201.182624,8.33982366 201.640631,6.64451541 202.556644,5.08592537 C203.472658,3.52733534 204.70996,2.29003339 206.26855,1.37402016 C207.82714,0.458006929 209.522448,-1.77635684e-15 211.354475,-1.77635684e-15 Z M211.354475,18.3749562 C212.831034,18.3749562 214.198218,18.0058164 215.456028,17.267537 C216.713837,16.5292575 217.711882,15.5312132 218.450161,14.2734035 C219.188441,13.0155938 219.55758,11.6484097 219.55758,10.1718507 C219.55758,8.69529177 219.188441,7.32810774 218.450161,6.07029803 C217.711882,4.81248832 216.713837,3.81444403 215.456028,3.07616454 C214.198218,2.33788505 212.831034,1.96874531 211.354475,1.96874531 C209.877916,1.96874531 208.510732,2.33788505 207.252922,3.07616454 C205.995113,3.81444403 204.997068,4.81248832 204.258789,6.07029803 C203.520509,7.32810774 203.15137,8.69529177 203.15137,10.1718507 C203.15137,11.6484097 203.520509,13.0155938 204.258789,14.2734035 C204.997068,15.5312132 205.995113,16.5292575 207.252922,17.267537 C208.510732,18.0058164 209.877916,18.3749562 211.354475,18.3749562 Z M211.354475,4.51170799 C211.819317,4.51170799 212.222637,4.68260623 212.564433,5.02440208 C212.906229,5.36619793 213.077127,5.7695177 213.077127,6.23436014 C213.077127,6.69920257 212.906229,7.10252234 212.564433,7.44431819 C212.222637,7.78611404 211.819317,7.95701228 211.354475,7.95701228 C210.889633,7.95701228 210.486313,7.78611404 210.144517,7.44431819 C209.802721,7.10252234 209.631823,6.69920257 209.631823,6.23436014 C209.631823,5.7695177 209.802721,5.36619793 210.144517,5.02440208 C210.486313,4.68260623 210.889633,4.51170799 211.354475,4.51170799 Z M213.651344,14.9296519 C213.651344,15.0663701 213.603493,15.1825812 213.50779,15.2782839 C213.412087,15.3739866 213.295876,15.4218382 213.159158,15.4218382 L209.549792,15.4218382 C209.413074,15.4218382 209.296862,15.3739866 209.20116,15.2782839 C209.105457,15.1825812 209.057605,15.0663701 209.057605,14.9296519 L209.057605,13.9452793 C209.057605,13.808561 209.105457,13.69235 209.20116,13.5966473 C209.296862,13.5009446 209.413074,13.4530929 209.549792,13.4530929 L210.041978,13.4530929 L210.041978,10.8280992 L209.549792,10.8280992 C209.413074,10.8280992 209.296862,10.7802475 209.20116,10.6845448 C209.105457,10.5888422 209.057605,10.4726311 209.057605,10.3359129 L209.057605,9.3515402 C209.057605,9.21482199 209.105457,9.09861091 209.20116,9.00290822 C209.296862,8.90720553 209.413074,8.85935388 209.549792,8.85935388 L212.174786,8.85935388 C212.311504,8.85935388 212.427715,8.90720553 212.523417,9.00290822 C212.61912,9.09861091 212.666972,9.21482199 212.666972,9.3515402 L212.666972,13.4530929 L213.159158,13.4530929 C213.295876,13.4530929 213.412087,13.5009446 213.50779,13.5966473 C213.603493,13.69235 213.651344,13.808561 213.651344,13.9452793 L213.651344,14.9296519 Z" transform="translate(-200.81 .541)"/>
</svg>
