<svg xmlns="http://www.w3.org/2000/svg" xmlns:xlink="http://www.w3.org/1999/xlink" width="178" height="45" viewBox="0 0 178 45">
  <defs>
    <polygon id="logo-a" points="0 44.215 177.952 44.215 177.952 0 0 0"/>
  </defs>
  <g fill="none" fill-rule="evenodd" transform="translate(0 .697)">
    <path fill="#FFF" d="M162.186709,16.5155257 C162.398646,15.5829304 162.610584,14.5661833 163.500584,13.5913389 C164.136051,12.9132767 165.238335,12.15037 166.806051,12.15037 C167.950584,12.15037 169.179269,12.5742455 169.984771,13.3794012 C170.916674,14.3542455 171.086016,15.5829304 171.213109,16.5155257 L162.186709,16.5155257 Z M172.781172,22.1938642 C171.976362,23.7619265 170.746985,26.0928953 167.187331,26.0928953 C163.669926,26.0928953 162.102211,23.3383973 162.14446,20.5835529 L177.951483,20.5835529 C177.866639,18.0832416 177.69695,13.7606813 174.815358,10.6671521 C171.976362,7.61621829 168.162175,7.4887786 166.8483,7.4887786 C158.118681,7.4887786 155.491277,14.3542455 155.491277,19.6938992 C155.491277,26.9403 160.110273,31.1357669 166.678958,31.1357669 C170.238611,31.1357669 173.120203,29.7796424 175.027296,27.9999887 C176.171483,26.9403 176.934389,25.8383623 177.69695,24.6941755 L172.781172,22.1938642 Z M134.781288,13.2100588 L145.460596,13.2100588 L133.510008,25.4148331 L133.510008,30.3306113 L153.724436,30.3306113 L153.724436,25.2451444 L141.943191,25.2451444 L153.724436,13.2100588 L153.724436,8.20943619 L134.781288,8.20943619 L134.781288,13.2100588 Z M117.343522,8.25168521 L110.774837,8.25168521 L110.774837,30.3306113 L117.300926,30.3306113 L117.300926,18.3800237 C117.300926,15.6255257 117.300926,12.8710276 120.733833,12.8710276 C122.005113,12.8710276 123.1493,13.3794012 123.657674,14.5661833 C123.91186,15.1594012 123.954456,15.8797125 123.954456,17.8716502 L123.954456,30.3306113 L130.438296,30.3306113 L130.438296,15.2016502 C130.438296,11.7690899 129.844732,9.77749844 127.514109,8.54846732 C126.369923,7.91265409 124.886705,7.65846732 123.572829,7.65846732 C122.005113,7.65846732 120.564491,8.03974747 119.547051,8.46362296 C118.402864,9.01459183 117.978989,9.52296537 117.343522,10.2010276 L117.343522,8.25168521 Z M91.9255374,16.5155257 C92.1374751,15.5829304 92.3494128,14.5661833 93.2394128,13.5913389 C93.8748798,12.9132767 94.9768175,12.15037 96.5448798,12.15037 C97.6890665,12.15037 98.9180977,12.5742455 99.7232533,13.3794012 C100.655502,14.3542455 100.825191,15.5829304 100.951938,16.5155257 L91.9255374,16.5155257 Z M102.52,22.1938642 C101.714845,23.7619265 100.485814,26.0928953 96.9261599,26.0928953 C93.4091016,26.0928953 91.840693,23.3383973 91.8832883,20.5835529 L107.689965,20.5835529 C107.605467,18.0832416 107.435779,13.7606813 104.554187,10.6671521 C101.714845,7.61621829 97.9010043,7.4887786 96.5871288,7.4887786 C87.8571638,7.4887786 85.2297591,14.3542455 85.2297591,19.6938992 C85.2297591,26.9403 89.8491016,31.1357669 96.4177864,31.1357669 C99.9774401,31.1357669 102.859032,29.7796424 104.766125,27.9999887 C105.910312,26.9403 106.673218,25.8383623 107.435779,24.6941755 L102.52,22.1938642 Z M77.8181716,8.60907043 L71.4614245,8.60907043 L71.4614245,30.3306113 L77.987514,30.3306113 L77.987514,17.8716502 C77.987514,15.0745568 78.919763,14.6084323 82.0558875,14.0574634 L84.2171677,13.7184323 L84.2171677,7.95524942 C80.8268564,8.29428054 79.2587942,9.2687786 77.8181716,10.4978097 L77.8181716,8.60907043 Z M38.7087319,0.411720233 L38.7087319,30.3306113 L46.1670704,30.3306113 L46.1670704,18.2529304 L56.5828409,18.2529304 L56.5828409,12.4471521 L46.1670704,12.4471521 L46.1670704,6.17524942 L57.811872,6.17524942 L57.811872,0.411720233 L38.7087319,0.411720233 Z"/>
    <mask id="logo-b" fill="#fff">
      <use xlink:href="#logo-a"/>
    </mask>
    <polygon fill="#FFF" points="61.168 30.331 67.609 30.331 67.609 8.812 61.168 8.812" mask="url(#logo-b)"/>
    <path fill="#FFF" d="M64.3886257 6.60476965C66.2126062 6.60476965 67.6909759 5.12570739 67.6909759 3.30241946 67.6909759 1.47878521 66.2126062.0000692607004 64.3886257.0000692607004 62.5649914.0000692607004 61.0862755 1.47878521 61.0862755 3.30241946 61.0862755 5.12570739 62.5649914 6.60476965 64.3886257 6.60476965M175.325602 40.212451L174.726843 40.212451 174.726843 44.0862019 175.368544 44.0862019 175.368544 42.2099296C175.368544 41.7102136 175.404213 41.4605288 175.504295 41.2392409 175.66117 40.8894743 176.032407 40.6681864 176.467711 40.6681864 176.838948 40.6681864 177.131575 40.8254082 177.231656 41.0892914 177.288796 41.2534393 177.302995 41.3819179 177.302995 41.803023L177.302995 44.0862019 177.951621 44.0862019 177.951621 41.5820813C177.951621 41.1107623 177.915606 40.8894743 177.787127 40.6681864 177.581077 40.2979879 177.181442 40.1127156 176.603116 40.1127156 176.267894 40.1127156 175.882112 40.2550463 175.632773 40.4759879 175.518493 40.5757233 175.447154 40.6612603 175.31833 40.8610774L175.283007 40.8538051C175.31833 40.7042019 175.325602 40.6470619 175.325602 40.5116572L175.325602 40.212451zM171.845252 40.6325171C172.609197 40.6325171 173.066318 41.2035716 173.066318 42.1600619 173.066318 43.0950813 172.602271 43.6661358 171.85287 43.6661358 171.096197 43.6661358 170.625225 43.0878089 170.625225 42.1458634 170.625225 41.2250424 171.103123 40.6325171 171.845252 40.6325171L171.845252 40.6325171zM171.845252 40.0985171C170.696563 40.0985171 169.969326 40.9040191 169.969326 42.1742603 169.969326 43.4019062 170.710761 44.2074082 171.85287 44.2074082 173.023376 44.2074082 173.72187 43.4448479 173.72187 42.1600619 173.72187 40.8752759 173.009178 40.0985171 171.845252 40.0985171L171.845252 40.0985171zM168.318151 44.0862019L168.959851 44.0862019 168.959851 40.2117584 168.318151 40.2117584 168.318151 44.0862019zM168.318151 39.4834821L168.959851 39.4834821 168.959851 38.7070696 168.318151 38.7070696 168.318151 39.4834821zM167.508493 40.212451L166.902462 40.212451C166.816579 40.212451 166.795108 40.212451 166.716843 40.2411942 166.74524 40.162237 166.74524 40.1338401 166.74524 40.0555755L166.74524 39.0637623 166.103886 39.0637623 166.103886 40.0555755C166.103886 40.1338401 166.103886 40.162237 166.132283 40.2411942 166.053672 40.212451 166.025275 40.212451 165.939392 40.212451L165.447295 40.212451 165.447295 40.7325988 165.939392 40.7325988C166.024929 40.7325988 166.053672 40.7325988 166.13159 40.7042019 166.103886 40.7824665 166.103886 40.8039374 166.103886 40.8894743L166.103886 42.6306883 166.103886 42.8453965 166.103886 43.0594121 166.110812 43.2734276C166.110812 43.4947156 166.139555 43.6588634 166.189077 43.7585988 166.310283 44.0079374 166.559968 44.1145988 167.030594 44.1145988 167.20894 44.1145988 167.337419 44.1076728 167.508493 44.0789296L167.508493 43.5376572C167.401485 43.5518556 167.308676 43.559128 167.251882 43.559128 166.787835 43.559128 166.74524 43.508914 166.74524 42.9880735L166.74524 40.8894743C166.74524 40.8112097 166.74524 40.7824665 166.716497 40.7042019 166.794761 40.7325988 166.816579 40.7325988 166.902116 40.7325988L167.508493 40.7325988 167.508493 40.212451zM164.684042 40.212451L164.04338 40.212451 164.04338 42.0887233C164.04338 42.5953654 164.007018 42.8453965 163.907283 43.0452136 163.714738 43.4161047 163.357699 43.6304665 162.93694 43.6304665 162.544232 43.6304665 162.265804 43.4732447 162.172995 43.1948167 162.115509 43.0452136 162.10131 42.8737934 162.10131 42.49563L162.10131 40.212451 161.452684 40.212451 161.452684 42.723844C161.452684 43.2377584 161.524022 43.5234588 161.695442 43.7444004 161.930236 44.0363342 162.294201 44.1859374 162.772446 44.1859374 163.328956 44.1859374 163.778804 43.9293265 164.092902 43.4306494L164.128571 43.4448479C164.092902 43.5947973 164.085975 43.644665 164.085975 43.7869957L164.085975 44.0862019 164.684042 44.0862019 164.684042 40.212451zM159.643248 44.0862019L160.284602 44.0862019 160.284602 38.7427389 159.643248 38.7427389 159.643248 44.0862019zM156.750921 40.6325171C157.514867 40.6325171 157.971987 41.2035716 157.971987 42.1600619 157.971987 43.0950813 157.50794 43.6661358 156.75854 43.6661358 156.00152 43.6661358 155.530894 43.0878089 155.530894 42.1458634 155.530894 41.2250424 156.009139 40.6325171 156.750921 40.6325171L156.750921 40.6325171zM156.750921 40.0985171C155.602232 40.0985171 154.874995 40.9040191 154.874995 42.1742603 154.874995 43.4019062 155.616431 44.2074082 156.75854 44.2074082 157.929046 44.2074082 158.627193 43.4448479 158.627193 42.1600619 158.627193 40.8752759 157.914847 40.0985171 156.750921 40.0985171L156.750921 40.0985171zM153.868637 40.304914C153.832968 39.2556144 153.126855 38.6357311 151.97782 38.6357311 151.292832 38.6357311 150.892851 38.7420463 150.522306 39.0274004 150.151761 39.3054821 149.973415 39.6839918 149.973415 40.1764354 149.973415 40.5760696 150.129944 40.9185638 150.414952 41.1325794 150.650439 41.3109257 150.885925 41.3968089 151.513773 41.5464121L151.621127 41.5751553 151.727789 41.5962798 151.835143 41.625023 151.956695 41.6534198C152.391653 41.7535016 152.441867 41.7677 152.663154 41.8390385 153.155252 42.0031864 153.390738 42.2601436 153.390738 42.6310346 153.390738 42.9240074 153.284077 43.1594938 153.069715 43.3447661 152.834575 43.5518556 152.53433 43.6304665 152.020761 43.6304665 151.0428 43.6304665 150.493563 43.1664198 150.471746 42.3242097L149.787796 42.3242097C149.802341 43.5234588 150.607497 44.2074082 151.999291 44.2074082 152.663154 44.2074082 153.119929 44.0792759 153.476275 43.8011942 153.854439 43.5161864 154.07538 43.0736105 154.07538 42.6241086 154.07538 42.1174665 153.882835 41.7462292 153.462077 41.4681475 153.177069 41.2825288 152.841154 41.1609763 152.099372 41.0041008L151.992365 40.98263 151.885011 40.9611591 151.77073 40.9327623C151.720863 40.9254899 151.678267 40.9112914 151.628053 40.9043654 151.30703 40.8184821 151.092668 40.7398712 150.935446 40.6539879 150.743248 40.5404004 150.650439 40.3547817 150.650439 40.0690813 150.650439 39.5125716 151.185824 39.1700774 151.999291 39.2199451 152.741419 39.2628868 153.10573 39.5981086 153.191267 40.304914L153.868637 40.304914zM144.585972 41.8037156C144.429096 41.8037156 144.393773 41.8109879 144.258022 41.8393848 144.36503 41.0182992 144.735921 40.6252447 145.420909 40.6252447 146.048758 40.6252447 146.455318 41.0754393 146.512112 41.8393848 146.412376 41.8109879 146.383979 41.8037156 146.255501 41.8037156L144.585972 41.8037156zM146.497913 42.8592486C146.319221 43.4590463 146.012742 43.6945327 145.44238 43.6945327 144.671509 43.6945327 144.279493 43.230486 144.251096 42.2809218 144.322435 42.3093187 144.336633 42.3165911 144.42217 42.3165911L147.168011 42.3165911C147.168011 41.817914 147.118489 41.4750735 147.004555 41.1682486 146.7334 40.5043848 146.141221 40.0985171 145.413637 40.0985171 144.379228 40.0985171 143.601777 40.9684315 143.601777 42.1243926 143.601777 43.4448479 144.279493 44.2146805 145.427835 44.2146805 146.355236 44.2146805 146.925598 43.7585988 147.125415 42.8592486L146.497913 42.8592486zM140.790485 39.3484237C141.098003 39.3484237 141.340069 39.3768206 141.490365 39.4339607 141.804462 39.5555132 142.003933 39.8623381 142.003933 40.219377 142.003933 40.6332097 141.883073 40.8901669 141.611571 41.0543148 141.397209 41.1758673 141.140598 41.2188089 140.598287 41.2188089L139.427781 41.2188089C139.348824 41.2188089 139.320427 41.2188089 139.242162 41.2472058 139.270559 41.1685949 139.270559 41.1401981 139.270559 41.0615872L139.270559 39.5052992C139.270559 39.4266883 139.270559 39.3979451 139.242162 39.3196805 139.320427 39.3484237 139.348824 39.3484237 139.427781 39.3484237L140.790485 39.3484237zM138.572065 38.7427389L138.572065 44.0862019 139.270559 44.0862019 139.270559 41.9315016C139.270559 41.8528907 139.270559 41.8241475 139.242162 41.7458829 139.320427 41.7742798 139.348824 41.7742798 139.427781 41.7742798L140.676551 41.7742798C141.618843 41.7742798 141.889653 42.0454354 141.940213 43.0375949L141.960991 43.4445016C141.960991 43.4732447 141.96861 43.5016416 141.96861 43.5303848 141.975536 43.6945327 141.989734 43.787342 142.011551 43.872879 142.046874 43.9722681 142.068345 44.0363342 142.103668 44.0862019L142.909516 44.0862019 142.84545 44.0082837C142.723898 43.8801514 142.659832 43.6515911 142.617236 43.1733459L142.595419 43.0164704 142.581221 42.866521C142.560096 42.6019451 142.552824 42.5738946 142.538279 42.4665405 142.509882 42.2383265 142.453435 42.088377 142.346427 41.9315016 142.182625 41.7029412 142.003933 41.6032058 141.683256 41.5464121L141.683256 41.5107428C142.367898 41.311272 142.709353 40.86177 142.709353 40.1618907 142.709353 39.6552486 142.474559 39.2272175 142.061073 38.977879 141.790263 38.8064588 141.490365 38.7427389 141.005193 38.7427389L138.572065 38.7427389zM134.909559 41.8037156C134.752684 41.8037156 134.716668 41.8109879 134.58161 41.8393848 134.688271 41.0182992 135.059509 40.6252447 135.744151 40.6252447 136.371999 40.6252447 136.778213 41.0754393 136.835353 41.8393848 136.735271 41.8109879 136.706874 41.8037156 136.578396 41.8037156L134.909559 41.8037156zM136.821154 42.8592486C136.643154 43.4590463 136.33633 43.6945327 135.765621 43.6945327 134.995096 43.6945327 134.602388 43.230486 134.573991 42.2809218 134.64533 42.3093187 134.659528 42.3165911 134.745065 42.3165911L137.491944 42.3165911C137.491944 41.817914 137.44173 41.4750735 137.32745 41.1682486 137.056295 40.5043848 136.464462 40.0985171 135.737225 40.0985171 134.70247 40.0985171 133.924672 40.9684315 133.924672 42.1243926 133.924672 43.4448479 134.602388 44.2146805 135.751423 44.2146805 136.678477 44.2146805 137.249186 43.7585988 137.449003 42.8592486L136.821154 42.8592486zM132.512446 42.67363C132.412365 43.3087506 132.033855 43.6588634 131.441676 43.6588634 130.714092 43.6588634 130.299913 43.0878089 130.299913 42.0887233 130.299913 41.2392409 130.785431 40.6325171 131.463493 40.6325171 132.026929 40.6325171 132.362151 40.9109451 132.476777 41.4678012L133.133022 41.4678012C133.026014 40.5826494 132.440761 40.0985171 131.470073 40.0985171 130.385796 40.0985171 129.630509 40.9254899 129.630509 42.0956494 129.630509 42.7525872 129.730244 43.1165521 130.001053 43.5019879 130.328656 43.9577233 130.820754 44.1932097 131.441676 44.1932097 132.048053 44.1932097 132.455306 44.0148634 132.782909 43.6017233 132.997271 43.3374938 133.104625 43.0663381 133.161073 42.67363L132.512446 42.67363zM126.020987 40.212451L125.421882 40.212451 125.421882 44.0862019 126.063582 44.0862019 126.063582 42.2099296C126.063582 41.7102136 126.099252 41.4605288 126.199333 41.2392409 126.356209 40.8894743 126.727446 40.6681864 127.16275 40.6681864 127.533987 40.6681864 127.82696 40.8254082 127.926695 41.0892914 127.983835 41.2534393 127.998034 41.3819179 127.998034 41.803023L127.998034 44.0862019 128.64666 44.0862019 128.64666 41.5820813C128.64666 41.1107623 128.610645 40.8894743 128.482166 40.6681864 128.276116 40.2979879 127.876481 40.1127156 127.298154 40.1127156 126.962933 40.1127156 126.577151 40.2550463 126.327812 40.4759879 126.213532 40.5757233 126.142193 40.6612603 126.013368 40.8610774L125.978046 40.8538051C126.013368 40.7042019 126.020987 40.6470619 126.020987 40.5116572L126.020987 40.212451zM123.57747 42.0527078C123.549073 42.1815327 123.542147 42.2244743 123.542147 42.3671514L123.542147 42.6525054C123.542147 42.9309335 123.51375 43.0379412 123.420594 43.1736922 123.192726 43.4947156 122.793092 43.6876066 122.34359 43.6876066 121.865345 43.6876066 121.572719 43.416451 121.594189 42.9953459 121.608734 42.7595132 121.722668 42.5742409 121.915559 42.4672331 122.093559 42.3744237 122.236236 42.3387545 122.700283 42.2819607 123.264065 42.2106222 123.377999 42.1746066 123.556345 42.0388556L123.57747 42.0527078zM124.575863 43.5733265C124.497598 43.5947973 124.468855 43.5947973 124.411715 43.5947973 124.191119 43.5947973 124.140559 43.4732447 124.162376 42.9738751 124.162376 42.9309335 124.162376 42.8097272 124.169302 42.5596961L124.169302 42.0457817C124.176575 41.6890891 124.176575 41.4248595 124.176575 41.4248595 124.176575 40.8967467 124.112162 40.6754588 123.913038 40.4832603 123.670625 40.2481202 123.213851 40.1050969 122.721754 40.1050969 121.700851 40.1050969 121.102092 40.5899218 121.080275 41.4248595L121.70847 41.4248595C121.729594 41.1679023 121.772189 41.0466961 121.872271 40.9251436 122.015295 40.7467973 122.307575 40.6325171 122.621672 40.6325171 123.221123 40.6325171 123.506131 40.8181358 123.542147 41.2250424 123.57747 41.6104782 123.413668 41.7531553 122.864431 41.8175677L122.678812 41.8390385 122.492847 41.8674354 122.307575 41.8889062C122.086633 41.910377 121.843874 41.9671708 121.686653 42.0239646 121.222952 42.2030035 120.965995 42.5240268 120.930672 42.9949996 120.873532 43.7302019 121.358703 44.1859374 122.207493 44.1859374 122.764349 44.1859374 123.199653 43.9795405 123.57089 43.5303848L123.599287 43.5376572C123.606213 43.9289802 123.791485 44.143342 124.133979 44.143342 124.283236 44.143342 124.42626 44.1218712 124.575863 44.0720035L124.575863 43.5733265zM119.942322 41.3393226C119.913925 40.9753576 119.842933 40.7679218 119.671859 40.568451 119.422174 40.2765171 118.958127 40.0985171 118.465684 40.0985171 117.501921 40.0985171 116.953376 40.4832603 116.918053 41.1893732 116.88931 41.717486 117.195789 42.0599802 117.844761 42.2172019L118.051505 42.274342 118.480228 42.3740774C118.64403 42.4170191 118.800905 42.4599607 118.937003 42.502556 119.286769 42.6026377 119.458189 42.780984 119.458189 43.0237428 119.458189 43.4230307 119.086952 43.6803342 118.501353 43.6803342 117.852034 43.6803342 117.523738 43.4230307 117.458979 42.8595949L116.83217 42.8595949C116.867493 43.7229296 117.444781 44.2001358 118.465684 44.2001358 119.429446 44.2001358 120.042057 43.7658712 120.098851 43.0379412 120.127594 42.7020268 119.984917 42.3813498 119.735925 42.1957311 119.493512 42.0173848 119.215431 41.9173031 118.601435 41.7818984 118.222925 41.6960152 117.97324 41.631949 117.873158 41.5890074 117.65187 41.489272 117.566333 41.3677195 117.566333 41.1395054 117.566333 40.8254082 117.880431 40.6325171 118.372874 40.6325171 118.951201 40.6325171 119.236555 40.8538051 119.307894 41.3393226L119.942322 41.3393226zM115.894726 41.3393226C115.86633 40.9753576 115.794991 40.7679218 115.623917 40.568451 115.374579 40.2765171 114.910532 40.0985171 114.418088 40.0985171 113.454326 40.0985171 112.905781 40.4832603 112.869765 41.1893732 112.841368 41.717486 113.148193 42.0599802 113.797166 42.2172019L114.003909 42.274342 114.432287 42.3740774C114.596435 42.4170191 114.753656 42.4599607 114.888715 42.502556 115.238481 42.6026377 115.409902 42.780984 115.409902 43.0237428 115.409902 43.4230307 115.039011 43.6803342 114.453758 43.6803342 113.804092 43.6803342 113.47545 43.4230307 113.41173 42.8595949L112.784228 42.8595949C112.820244 43.7229296 113.397532 44.2001358 114.418088 44.2001358 115.381505 44.2001358 115.994462 43.7658712 116.051602 43.0379412 116.079999 42.7020268 115.937668 42.3813498 115.68833 42.1957311 115.445917 42.0173848 115.167143 41.9173031 114.553839 41.7818984 114.17533 41.6960152 113.925298 41.631949 113.825563 41.5890074 113.604275 41.489272 113.518392 41.3677195 113.518392 41.1395054 113.518392 40.8254082 113.832835 40.6325171 114.325279 40.6325171 114.90326 40.6325171 115.18896 40.8538051 115.260298 41.3393226L115.894726 41.3393226zM111.162489 44.0862019L111.803843 44.0862019 111.803843 40.2117584 111.162489 40.2117584 111.162489 44.0862019zM111.162489 39.4834821L111.803843 39.4834821 111.803843 38.7070696 111.162489 38.7070696 111.162489 39.4834821zM109.303186 42.0527078C109.274789 42.1815327 109.267516 42.2244743 109.267516 42.3671514L109.267516 42.6525054C109.267516 42.9309335 109.239119 43.0379412 109.145964 43.1736922 108.91775 43.4947156 108.518462 43.6876066 108.06896 43.6876066 107.590715 43.6876066 107.298435 43.416451 107.319905 42.9953459 107.334104 42.7595132 107.448038 42.5742409 107.640929 42.4672331 107.818929 42.3744237 107.961952 42.3387545 108.425306 42.2819607 108.989088 42.2106222 109.103368 42.1746066 109.282061 42.0388556L109.303186 42.0527078zM110.300886 43.5733265C110.222968 43.5947973 110.194571 43.5947973 110.137431 43.5947973 109.916489 43.5947973 109.866621 43.4732447 109.888092 42.9738751 109.888092 42.9309335 109.888092 42.8097272 109.895018 42.5596961L109.895018 42.0457817C109.902291 41.6890891 109.902291 41.4248595 109.902291 41.4248595 109.902291 40.8967467 109.837878 40.6754588 109.638061 40.4832603 109.395995 40.2481202 108.939567 40.1050969 108.447123 40.1050969 107.426913 40.1050969 106.827116 40.5899218 106.805991 41.4248595L107.433839 41.4248595C107.45531 41.1679023 107.498252 41.0466961 107.597987 40.9251436 107.740664 40.7467973 108.033291 40.6325171 108.347388 40.6325171 108.946147 40.6325171 109.231847 40.8181358 109.267516 41.2250424 109.303186 41.6104782 109.139384 41.7531553 108.5898 41.8175677L108.404182 41.8390385 108.218909 41.8674354 108.033291 41.8889062C107.812003 41.910377 107.56959 41.9671708 107.412368 42.0239646 106.948668 42.2030035 106.691711 42.5240268 106.656042 42.9949996 106.599248 43.7302019 107.084073 44.1859374 107.933555 44.1859374 108.490065 44.1859374 108.925368 43.9795405 109.29626 43.5303848L109.324656 43.5376572C109.331929 43.9289802 109.517201 44.143342 109.859349 44.143342 110.008952 44.143342 110.151629 44.1218712 110.300886 44.0720035L110.300886 43.5733265zM103.03994 40.212451L102.441528 40.212451 102.441528 44.0862019 103.082882 44.0862019 103.082882 42.2099296C103.082882 41.7102136 103.118205 41.4605288 103.21794 41.2392409 103.375162 40.8894743 103.746746 40.6681864 104.182049 40.6681864 104.553287 40.6681864 104.845567 40.8254082 104.945995 41.0892914 105.003135 41.2534393 105.017333 41.3819179 105.017333 41.803023L105.017333 44.0862019 105.665614 44.0862019 105.665614 41.5820813C105.665614 41.1107623 105.630291 40.8894743 105.501812 40.6681864 105.294723 40.2979879 104.896127 40.1127156 104.3178 40.1127156 103.981886 40.1127156 103.596796 40.2550463 103.346419 40.4759879 103.232485 40.5757233 103.161147 40.6612603 103.033014 40.8610774L102.997345 40.8538051C103.033014 40.7042019 103.03994 40.6470619 103.03994 40.5116572L103.03994 40.212451zM98.8572868 41.8037156C98.700065 41.8037156 98.664742 41.8109879 98.5286447 41.8393848 98.6359988 41.0182992 99.0072362 40.6252447 99.6918782 40.6252447 100.319726 40.6252447 100.726287 41.0754393 100.783427 41.8393848 100.683345 41.8109879 100.654948 41.8037156 100.52647 41.8037156L98.8572868 41.8037156zM100.769228 42.8592486C100.590536 43.4590463 100.284057 43.6945327 99.7130027 43.6945327 98.9428237 43.6945327 98.5504619 43.230486 98.522065 42.2809218 98.5934035 42.3093187 98.6076019 42.3165911 98.6931389 42.3165911L101.439672 42.3165911C101.439672 41.817914 101.389804 41.4750735 101.275524 41.1682486 101.004368 40.5043848 100.412536 40.0985171 99.6846058 40.0985171 98.6505436 40.0985171 97.8727459 40.9684315 97.8727459 42.1243926 97.8727459 43.4448479 98.5504619 44.2146805 99.6988043 44.2146805 100.626551 44.2146805 101.196567 43.7585988 101.39673 42.8592486L100.769228 42.8592486zM95.0621467 39.3484237C95.3686253 39.3484237 95.611384 39.3768206 95.7613335 39.4339607 96.0750844 39.5555132 96.2749016 39.8623381 96.2749016 40.219377 96.2749016 40.6332097 96.1540416 40.8901669 95.882886 41.0543148 95.6685241 41.1758673 95.4115669 41.2188089 94.8692556 41.2188089L93.6987498 41.2188089C93.6197926 41.2188089 93.5913957 41.2188089 93.5131311 41.2472058 93.5418743 41.1685949 93.5418743 41.1401981 93.5418743 41.0615872L93.5418743 39.5052992C93.5418743 39.4266883 93.5418743 39.3979451 93.5131311 39.3196805 93.5913957 39.3484237 93.6197926 39.3484237 93.6987498 39.3484237L95.0621467 39.3484237zM92.8430339 38.7427389L92.8430339 44.0862019 93.5418743 44.0862019 93.5418743 41.9315016C93.5418743 41.8528907 93.5418743 41.8241475 93.5131311 41.7458829 93.5913957 41.7742798 93.6197926 41.7742798 93.6987498 41.7742798L94.9475202 41.7742798C95.8894658 41.7742798 96.1609677 42.0454354 96.2111817 43.0375949L96.2323062 43.4445016C96.2323062 43.4732447 96.2395786 43.5016416 96.2395786 43.5303848 96.2465047 43.6945327 96.2607031 43.787342 96.2825202 43.872879 96.3178432 43.9722681 96.3396603 44.0363342 96.3753296 44.0862019L97.1808315 44.0862019 97.1160728 44.0082837C96.9952128 43.8801514 96.9311467 43.6515911 96.8882051 43.1733459L96.8663879 43.0164704 96.8521895 42.866521C96.8314113 42.6019451 96.8237926 42.5738946 96.8095942 42.4665405 96.780851 42.2383265 96.7240572 42.088377 96.6173957 41.9315016 96.4535942 41.7029412 96.2749016 41.6032058 95.9542245 41.5464121L95.9542245 41.5107428C96.6385202 41.311272 96.9810144 40.86177 96.9810144 40.1618907 96.9810144 39.6552486 96.7458743 39.2272175 96.3323879 38.977879 96.060886 38.8064588 95.7613335 38.7427389 95.2761623 38.7427389L92.8430339 38.7427389zM87.4202673 41.8892525C87.1065163 41.8892525 87.0493763 41.8892525 86.7712946 41.9107233 86.8852284 41.6610385 86.9066992 41.6038984 87.013707 41.311272L87.2633918 40.6332097C87.4916058 40.0192136 87.5418198 39.8696105 87.7128938 39.2912837L87.7412907 39.2912837C87.9127109 39.8696105 87.9483802 39.9838907 88.1838665 40.6332097L88.4259327 41.3185444C88.5332868 41.6180969 88.5547576 41.6610385 88.6617654 41.9107233 88.3906097 41.8892525 88.3334696 41.8892525 88.0266447 41.8892525L87.4202673 41.8892525zM88.1336525 38.7212681L87.3420027 38.7212681 85.2440961 44.0862019 85.9865708 44.0862019 86.5998743 42.4450696 88.8401117 42.4450696 89.4388704 44.0862019 90.2239405 44.0862019 88.1336525 38.7212681zM26.9693895 21.7464401C25.4636619 21.469051 23.8523117 21.8974284 22.6897708 23.0592767 21.7800315 23.9686696 21.2792767 25.1779615 21.2792767 26.4648253 21.2792767 26.7654167 21.3166774 27.0590821 21.3707008 27.3478992 20.826658 27.6384479 20.2604518 27.8926346 19.6755451 28.1080354 19.1633623 25.9990471 17.2642339 24.4264829 14.9997553 24.4264829 12.7366619 24.4264829 10.8378798 25.9983545 10.3250043 28.1063039 9.73767354 27.8898642 9.16904319 27.6346385 8.62257626 27.3423584 8.90169689 25.8355918 8.47331946 24.2225101 7.3104323 23.0592767L7.3104323 23.0589304C6.14789144 21.8974284 4.53619494 21.4687047 3.03012101 21.7467864 2.73784086 21.1999732 2.47811323 20.6330743 2.26167354 20.045051 4.37031556 19.5328681 5.94287977 17.6337397 5.94287977 15.3692611 5.94287977 13.1047825 4.36996926 11.2056541 2.26063463 10.6938175 2.47672802 10.1071794 2.73541673 9.54166576 3.02665798 8.99623774 3.31720661 9.05026109 3.61017938 9.08731556 3.90488366 9.08731556 5.13807043 9.08731556 6.3716035 8.61842062 7.3104323 7.67959183 8.47297315 6.51670467 8.90135058 4.90396926 8.62257626 3.39720272 9.16904319 3.10492257 9.73698093 2.84796537 10.3250043 2.63152568 10.8371872 4.7401677 12.7363156 6.3123856 14.9997553 6.3123856 17.2631949 6.3123856 19.1616307 4.74086031 19.6748525 2.6336035 20.261837 2.85004319 20.8318525 3.10180584 21.3776268 3.39373969 21.0978136 4.90119883 21.5258447 6.51566576 22.6897708 7.67993813 23.6285996 8.61842062 24.8621327 9.08766187 26.0953195 9.08766187 26.39037 9.08766187 26.6836891 9.05060739 26.974584 8.99623774 27.2658253 9.54131946 27.521051 10.1082183 27.7371444 10.6941638 25.6291949 11.2070393 24.056977 13.1058214 24.056977 15.3692611 24.056977 17.6330471 25.6288486 19.5314829 27.7364518 20.0443584 27.5200121 20.6323817 27.262016 21.1996268 26.9693895 21.7464401L26.9693895 21.7464401zM28.8688642 18.3817553C27.2093778 18.3793311 25.8605257 17.0294401 25.8605257 15.3692611 25.8605257 13.714623 27.2014128 12.3692339 28.8536268 12.3584984L28.8536268 12.3560743 30.0002377 12.3560743C29.5974868 10.3405879 28.8075685 8.46500817 27.6973195 6.82006654 26.5337397 7.55145953 24.9767591 7.41640117 23.9648603 6.40450233 22.9526152 5.3922572 22.8172105 3.83527665 23.5492961 2.67169689 21.9040082 1.56179416 20.0284284.771529572 18.0125957.369124903L18.0125957 1.49495759C18.0125957 1.49565019 18.012942 1.4959965 18.012942 1.4963428 18.012942 1.49668911 18.0125957 1.49668911 18.0125957 1.49703541L18.0125957 1.51019494 18.0115568 1.51019494C18.0035918 3.16483307 16.6564712 4.50883696 14.9997553 4.50883696 13.3433856 4.50883696 11.9966113 3.16483307 11.9886463 1.51019494L11.9869148 1.51019494 11.9869148.369124903C9.9714284.771529572 8.09619494 1.56179416 6.450907 2.67204319 7.1826463 3.83562296 7.04724163 5.3926035 6.0353428 6.40450233 5.02344397 7.41674747 3.46611712 7.55180584 2.30253735 6.82006654 1.19263463 8.46535447.402716342 10.3409342-.0000346303502 12.3564206-.0000346303502 12.3564206 1.12579805 12.3567669 1.12718327 12.3567669 2.78840117 12.3567669 4.13967743 13.7076969 4.13967743 15.3692611 4.13967743 17.0308253 2.78840117 18.3824479 1.12718327 18.3824479 1.12545175 18.3824479-.0000346303502 18.3821016-.0000346303502 18.3821016.402716342 20.3975879 1.19263463 22.2728214 2.30253735 23.9181093 2.79082529 23.6105918 3.34698872 23.45337 3.90488366 23.45337 4.67644786 23.45337 5.44835837 23.7466891 6.0353428 24.3336735 7.04724163 25.346265 7.1823 26.9028992 6.450907 28.066479 8.09619494 29.1763817 9.97177471 29.9666463 11.9872611 30.369051L11.9872611 29.2425257C11.9872611 27.5813078 13.3385374 26.2296852 14.9997553 26.2296852 16.6613195 26.2296852 18.012942 27.5813078 18.012942 29.2425257 18.012942 29.2480665 18.0132883 30.369051 18.0132883 30.369051 20.0284284 29.9666463 21.9036619 29.176728 23.5486035 28.0668253 23.2480121 27.5910043 23.0821327 27.0417669 23.0821327 26.4648253 23.0821327 25.660016 23.3955374 24.9029965 23.964514 24.3343661 24.5518447 23.7466891 25.3237553 23.45337 26.0953195 23.45337 26.6532144 23.45337 27.2097241 23.6105918 27.6980121 23.9181093 28.8075685 22.2731677 29.5974868 20.3975879 29.9998914 18.3824479L28.8688642 18.3824479 28.8688642 18.3817553z" mask="url(#logo-b)"/>
  </g>
</svg>
