<svg xmlns="http://www.w3.org/2000/svg" width="17" height="14" viewBox="0 0 17 14">
  <path fill="#FFF" d="M0.732420534,6.89065149 C0.568358246,6.89065149 0.433593121,6.83791724 0.328124623,6.73244874 C0.222656124,6.62698024 0.169921875,6.49221512 0.169921875,6.32815283 L0.169921875,4.92190618 C0.169921875,4.75784389 0.222656124,4.62307877 0.328124623,4.51761027 C0.433593121,4.41214177 0.568358246,4.35940752 0.732420534,4.35940752 L15.3573857,4.35940752 C15.521448,4.35940752 15.6562131,4.41214177 15.7616816,4.51761027 C15.8671501,4.62307877 15.9198843,4.75784389 15.9198843,4.92190618 L15.9198843,6.32815283 C15.9198843,6.49221512 15.8671501,6.62698024 15.7616816,6.73244874 C15.6562131,6.83791724 15.521448,6.89065149 15.3573857,6.89065149 L0.732420534,6.89065149 Z M0.732420534,12.5156381 C0.568358246,12.5156381 0.433593121,12.4629038 0.328124623,12.3574353 C0.222656124,12.2519668 0.169921875,12.1172017 0.169921875,11.9531394 L0.169921875,10.5468928 C0.169921875,10.3828305 0.222656124,10.2480654 0.328124623,10.1425969 C0.433593121,10.0371284 0.568358246,9.98439411 0.732420534,9.98439411 L15.3573857,9.98439411 C15.521448,9.98439411 15.6562131,10.0371284 15.7616816,10.1425969 C15.8671501,10.2480654 15.9198843,10.3828305 15.9198843,10.5468928 L15.9198843,11.9531394 C15.9198843,12.1172017 15.8671501,12.2519668 15.7616816,12.3574353 C15.6562131,12.4629038 15.521448,12.5156381 15.3573857,12.5156381 L0.732420534,12.5156381 Z M0.732420534,18.1406247 C0.568358246,18.1406247 0.433593121,18.0878904 0.328124623,17.9824219 C0.222656124,17.8769534 0.169921875,17.7421883 0.169921875,17.578126 L0.169921875,16.1718794 C0.169921875,16.0078171 0.222656124,15.8730519 0.328124623,15.7675834 C0.433593121,15.6621149 0.568358246,15.6093807 0.732420534,15.6093807 L15.3573857,15.6093807 C15.521448,15.6093807 15.6562131,15.6621149 15.7616816,15.7675834 C15.8671501,15.8730519 15.9198843,16.0078171 15.9198843,16.1718794 L15.9198843,17.578126 C15.9198843,17.7421883 15.8671501,17.8769534 15.7616816,17.9824219 C15.6562131,18.0878904 15.521448,18.1406247 15.3573857,18.1406247 L0.732420534,18.1406247 Z" transform="translate(.188 -4.14)"/>
</svg>
