<svg xmlns="http://www.w3.org/2000/svg" width="28" height="14" viewBox="0 0 28 14">
  <path fill="#2E0057" d="M29.1249374,44.5469071 L29.1249374,55.7031305 C29.1249374,55.9765675 29.0292347,56.2089884 28.8378287,56.4003944 C28.6464227,56.5918004 28.4140018,56.6875031 28.1405648,56.6875031 L3.85937265,56.6875031 C3.5859356,56.6875031 3.35351469,56.5918004 3.16210869,56.4003944 C2.97070269,56.2089884 2.875,55.9765675 2.875,55.7031305 L2.875,44.5469071 C2.875,44.27347 2.97070269,44.0410491 3.16210869,43.8496431 C3.35351469,43.6582371 3.5859356,43.5625344 3.85937265,43.5625344 L28.1405648,43.5625344 C28.4140018,43.5625344 28.6464227,43.6582371 28.8378287,43.8496431 C29.0292347,44.0410491 29.1249374,44.27347 29.1249374,44.5469071 Z M6.81249061,55.3750063 C6.81249061,54.6367268 6.55956132,54.0146577 6.05370336,53.5087998 C5.5478454,53.0029418 4.92577636,52.7500125 4.18749687,52.7500125 L4.18749687,55.3750063 L6.81249061,55.3750063 Z M6.81249061,44.8750313 L4.18749687,44.8750313 L4.18749687,47.500025 C4.92577636,47.500025 5.5478454,47.2470957 6.05370336,46.7412378 C6.55956132,46.2353798 6.81249061,45.6133108 6.81249061,44.8750313 Z M19.2812109,50.1250188 C19.2812109,49.0312712 18.9599228,48.1015863 18.317346,47.3359629 C17.6747692,46.5703395 16.9023103,46.1875282 15.9999687,46.1875282 C15.0976271,46.1875282 14.3251682,46.5703395 13.6825914,47.3359629 C13.0400146,48.1015863 12.7187265,49.0312712 12.7187265,50.1250188 C12.7187265,51.2187664 13.0400146,52.1484512 13.6825914,52.9140746 C14.3251682,53.679698 15.0976271,54.0625094 15.9999687,54.0625094 C16.9023103,54.0625094 17.6747692,53.679698 18.317346,52.9140746 C18.9599228,52.1484512 19.2812109,51.2187664 19.2812109,50.1250188 Z M27.8124405,52.7500125 C27.0741611,52.7500125 26.452092,53.0029418 25.9462341,53.5087998 C25.4403761,54.0146577 25.1874468,54.6367268 25.1874468,55.3750063 L27.8124405,55.3750063 L27.8124405,52.7500125 Z M27.8124405,44.8750313 L25.1874468,44.8750313 C25.1874468,45.6133108 25.4403761,46.2353798 25.9462341,46.7412378 C26.452092,47.2470957 27.0741611,47.500025 27.8124405,47.500025 L27.8124405,44.8750313 Z" transform="translate(-2 -43.5)"/>
</svg>
