<svg xmlns="http://www.w3.org/2000/svg" width="7" height="11" viewBox="0 0 7 11">
  <path fill="#337C97" d="M25.9999833,8.53126304 L21.7499934,12.7812529 C21.6041603,12.9270861 21.4270777,13.0000024 21.2187447,13.0000024 C21.0104117,13.0000024 20.8333291,12.9270861 20.687496,12.7812529 L19.9999976,12.0625046 C19.8541645,11.9166715 19.7812481,11.7395889 19.7812481,11.5312559 C19.7812481,11.3229229 19.8541645,11.1458403 19.9999976,11.0000072 L22.9999905,8.00001431 L19.9999976,5.00002623 C19.8541645,4.85418831 19.7812481,4.67710572 19.7812481,4.46877272 C19.7812481,4.26043973 19.8541645,4.08335714 19.9999976,3.93752399 L20.687496,3.2187757 C20.8333291,3.07294256 21.0104117,3.00002623 21.2187447,3.00002623 C21.4270777,3.00002623 21.6041603,3.07294256 21.7499934,3.2187757 L25.9999833,7.46876557 C26.1458165,7.61459872 26.2187328,7.79168131 26.2187328,8.00001431 C26.2187328,8.2083473 26.1458165,8.38542989 25.9999833,8.53126304 Z" transform="translate(-19.5 -2.338)"/>
</svg>
