<svg xmlns="http://www.w3.org/2000/svg" width="19" height="19" viewBox="0 0 19 19">
  <path fill="#FFF" d="M54.8319899,-2.87105829 C55.0429269,-2.84762067 55.2069892,-2.75387125 55.3241763,-2.58980897 C55.4413633,-2.42574668 55.4999571,-2.24996585 55.4999571,-2.06246647 C55.4999571,0.890651487 54.7616776,3.63283245 53.2851186,6.16407641 C51.8319973,8.62500805 49.8749705,10.5820348 47.4140389,12.0351562 C44.8827949,13.5117151 42.1406139,14.2499946 39.187496,14.2499946 C38.9999966,14.2499946 38.8242158,14.1914008 38.6601535,14.0742138 C38.4960912,13.9570268 38.4023418,13.7929645 38.3789042,13.5820275 L37.5351562,9.9257862 C37.4882815,9.73828682 37.5117188,9.55078691 37.6054685,9.36328754 C37.6992185,9.17578816 37.8398431,9.04688204 38.0273425,8.97656971 L41.9648331,7.28907373 C42.1288954,7.2187614 42.2988167,7.20704286 42.4745975,7.25391757 C42.6503783,7.30079227 42.8085811,7.39454223 42.9492058,7.5351669 L44.6718579,9.64453687 C46.0546669,9.01172587 47.2792737,8.15625934 48.3456773,7.07813673 C49.4120808,6.00001413 50.2616883,4.78126739 50.8944993,3.42189545 L48.7851293,1.69924331 C48.6445047,1.55861864 48.5507547,1.4004159 48.50388,1.22463507 C48.4570053,1.04885423 48.4687238,0.878932944 48.5390362,0.714870656 L50.2265322,-3.22261996 C50.2968445,-3.41011933 50.4257506,-3.550744 50.61325,-3.64449395 C50.8007494,-3.73824364 50.9882493,-3.76168099 51.1757486,-3.71480628 L54.8319899,-2.87105829 Z" transform="translate(-37 3.86)"/>
</svg>
