<svg xmlns="http://www.w3.org/2000/svg" width="7" height="11" viewBox="0 0 7 11">
  <path fill="#337C97" d="M0.999997616,7.46876557 L5.24998748,3.2187757 C5.39582063,3.07294256 5.57290322,3.00002623 5.78123622,3.00002623 C5.98956921,3.00002623 6.16665181,3.07294256 6.31248495,3.2187757 L6.99998331,3.93752399 C7.14581646,4.08335714 7.21873279,4.26043973 7.21873279,4.46877272 C7.21873279,4.67710572 7.14581646,4.84377183 6.99998331,4.96877153 L3.99999046,8.00001431 L6.99998331,11.0000072 C7.14581646,11.1458403 7.21873279,11.3229229 7.21873279,11.5312559 C7.21873279,11.7395889 7.14581646,11.9166715 6.99998331,12.0625046 L6.31248495,12.7812529 C6.16665181,12.9270861 5.98956921,13.0000024 5.78123622,13.0000024 C5.57290322,13.0000024 5.39582063,12.9270861 5.24998748,12.7812529 L0.999997616,8.53126304 C0.854164471,8.38542989 0.781248137,8.2083473 0.781248137,8.00001431 C0.781248137,7.79168131 0.854164471,7.61459872 0.999997616,7.46876557 Z" transform="translate(-.5 -2.338)"/>
</svg>
