<svg xmlns="http://www.w3.org/2000/svg" width="12" height="11" viewBox="0 0 12 11">
  <path fill="#337C97" d="M1094.16101,25.8966658 C1094.03341,26.0242698 1093.87846,26.0880716 1093.69617,26.0880716 C1093.51388,26.0880716 1093.35893,26.0242698 1093.23132,25.8966658 L1090.57899,23.2443284 L1087.92665,25.8966658 C1087.79905,26.0242698 1087.6441,26.0880716 1087.46181,26.0880716 C1087.27952,26.0880716 1087.12457,26.0242698 1086.99696,25.8966658 L1085.52041,24.4201069 C1085.3928,24.2925029 1085.329,24.1375556 1085.329,23.9552642 C1085.329,23.7729729 1085.3928,23.6180256 1085.52041,23.4904216 L1088.17274,20.8380842 L1085.52041,18.1857467 C1085.3928,18.0581427 1085.329,17.9031955 1085.329,17.7209041 C1085.329,17.5386127 1085.3928,17.3836655 1085.52041,17.2560614 L1086.99696,15.7795025 C1087.12457,15.6518985 1087.27952,15.5880967 1087.46181,15.5880967 C1087.6441,15.5880967 1087.79905,15.6518985 1087.92665,15.7795025 L1090.57899,18.4318399 L1093.23132,15.7795025 C1093.35893,15.6518985 1093.51388,15.5880967 1093.69617,15.5880967 C1093.87846,15.5880967 1094.03341,15.6518985 1094.16101,15.7795025 L1095.63757,17.2560614 C1095.76517,17.3836655 1095.82897,17.5386127 1095.82897,17.7209041 C1095.82897,17.9031955 1095.76517,18.0581427 1095.63757,18.1857467 L1092.98523,20.8380842 L1095.63757,23.4904216 C1095.76517,23.6180256 1095.82897,23.7729729 1095.82897,23.9552642 C1095.82897,24.1375556 1095.76517,24.2925029 1095.63757,24.4201069 L1094.16101,25.8966658 Z" transform="translate(-1084.5 -15.088)"/>
</svg>
