<svg xmlns="http://www.w3.org/2000/svg" width="17" height="17" viewBox="0 0 17 17">
  <path fill="#465054" d="M29.7812124,31.3437504 C29.9270455,31.4895835 29.9999619,31.6666661 29.9999619,31.8749991 C29.9999619,32.0833321 29.9270455,32.2604147 29.7812124,32.4062478 L28.9062145,33.2812458 C28.7603813,33.4270789 28.5832987,33.4999952 28.3749657,33.4999952 C28.1666327,33.4999952 27.9895501,33.4270789 27.843717,33.2812458 L24.7187244,30.1562532 C24.5728913,30.0104201 24.499975,29.8333375 24.499975,29.6250045 L24.499975,29.1250057 C23.3333112,30.04167 21.9999809,30.5000024 20.4999845,30.5000024 C19.3124873,30.5000024 18.2239484,30.2083366 17.2343673,29.6250045 C16.2447862,29.0416724 15.45833,28.2552162 14.8749979,27.2656351 C14.2916658,26.276054 14,25.1875151 14,24.0000179 C14,22.8125207 14.2916658,21.7239818 14.8749979,20.7344007 C15.45833,19.7448195 16.2447862,18.9583634 17.2343673,18.3750313 C18.2239484,17.7916992 19.3124873,17.5000334 20.4999845,17.5000334 C21.6874817,17.5000334 22.7760206,17.7916992 23.7656017,18.3750313 C24.7551828,18.9583634 25.541639,19.7448195 26.1249711,20.7344007 C26.7083032,21.7239818 26.999969,22.8125207 26.999969,24.0000179 C26.999969,25.5000143 26.5416366,26.8333446 25.6249723,28.0000083 L26.1249711,28.0000083 C26.3333041,28.0000083 26.5103867,28.0729247 26.6562198,28.2187578 L29.7812124,31.3437504 Z M20.499994,28.0000083 C21.2291493,28.0000083 21.9010227,27.8229253 22.5156047,27.4687596 C23.1301867,27.1145939 23.6145606,26.6302201 23.9687262,26.0156381 C24.3228919,25.401056 24.499975,24.7291827 24.499975,24.0000274 C24.499975,23.2708531 24.3228919,22.5989797 23.9687262,21.9843977 C23.6145606,21.3698157 23.1301867,20.8854418 22.5156047,20.5312762 C21.9010227,20.1771105 21.2291493,20.0000274 20.499994,20.0000274 C19.7708197,20.0000274 19.0989463,20.1771105 18.4843643,20.5312762 C17.8697823,20.8854418 17.3854084,21.3698157 17.0312428,21.9843977 C16.6770771,22.5989797 16.499994,23.2708531 16.499994,24.0000274 C16.499994,24.7291827 16.6770771,25.401056 17.0312428,26.0156381 C17.3854084,26.6302201 17.8697823,27.1145939 18.4843643,27.4687596 C19.0989463,27.8229253 19.7708197,28.0000083 20.499994,28.0000083 Z" transform="translate(-13.5 -17)"/>
</svg>
