<svg xmlns="http://www.w3.org/2000/svg" width="19" height="22" viewBox="0 0 19 22">
  <path fill="#2E0057" d="M17.2499656,46.1875282 L21.1874562,46.1875282 L21.1874562,57.3437516 C21.1874562,58.2460932 20.8661681,59.0185521 20.2235913,59.6611289 C19.5810145,60.3037057 18.8085556,60.6249937 17.906214,60.6249937 L6.09374218,60.6249937 C5.19140058,60.6249937 4.41894169,60.3037057 3.77636489,59.6611289 C3.13378809,59.0185521 2.8125,58.2460932 2.8125,57.3437516 L2.8125,46.1875282 L6.74999061,46.1875282 L6.74999061,44.8750313 C6.74999061,43.9180025 6.98241214,43.0361687 7.44725457,42.2295298 C7.91209701,41.4228909 8.54783768,40.7871502 9.35447659,40.3223078 C10.1611155,39.8574653 11.0429493,39.6250438 11.9999781,39.6250438 C12.9570069,39.6250438 13.8388407,39.8574653 14.6454796,40.3223078 C15.4521185,40.7871502 16.0878592,41.4228909 16.5527016,42.2295298 C17.017544,43.0361687 17.2499656,43.9180025 17.2499656,44.8750313 L17.2499656,46.1875282 Z M9.37498435,44.8750313 L9.37498435,46.1875282 L14.6249718,46.1875282 L14.6249718,44.8750313 C14.6249718,44.1640957 14.365207,43.5488628 13.8456768,43.0293326 C13.3261466,42.5098023 12.7109137,42.2500376 11.9999781,42.2500376 C11.2890425,42.2500376 10.6738096,42.5098023 10.1542794,43.0293326 C9.63474915,43.5488628 9.37498435,44.1640957 9.37498435,44.8750313 Z M15.9374687,49.7968946 C16.2109058,49.7968946 16.4433267,49.7011919 16.6347327,49.5097859 C16.8261387,49.3183799 16.9218414,49.085959 16.9218414,48.8125219 C16.9218414,48.5390848 16.8261387,48.3066639 16.6347327,48.1152579 C16.4433267,47.9238519 16.2109058,47.8281493 15.9374687,47.8281493 C15.6640317,47.8281493 15.4316107,47.9238519 15.2402047,48.1152579 C15.0487987,48.3066639 14.9530961,48.5390848 14.9530961,48.8125219 C14.9530961,49.085959 15.0487987,49.3183799 15.2402047,49.5097859 C15.4316107,49.7011919 15.6640317,49.7968946 15.9374687,49.7968946 Z M8.06248748,49.7968946 C8.33592454,49.7968946 8.56834544,49.7011919 8.75975145,49.5097859 C8.95115745,49.3183799 9.04686014,49.085959 9.04686014,48.8125219 C9.04686014,48.5390848 8.95115745,48.3066639 8.75975145,48.1152579 C8.56834544,47.9238519 8.33592454,47.8281493 8.06248748,47.8281493 C7.78905043,47.8281493 7.55662952,47.9238519 7.36522352,48.1152579 C7.17381752,48.3066639 7.07811483,48.5390848 7.07811483,48.8125219 C7.07811483,49.085959 7.17381752,49.3183799 7.36522352,49.5097859 C7.55662952,49.7011919 7.78905043,49.7968946 8.06248748,49.7968946 Z" transform="translate(-2.5 -39)"/>
</svg>
