<svg xmlns="http://www.w3.org/2000/svg" width="11" height="7" viewBox="0 0 11 7">
  <path fill="#337C97" d="M5.53123681,5.00002146 L9.78122668,9.25001132 C9.92705982,9.39584447 9.99997616,9.57292706 9.99997616,9.78126006 C9.99997616,9.98959305 9.92705982,10.1666756 9.78122668,10.3125088 L9.06247839,11.0000072 C8.91664525,11.1458403 8.73956266,11.2187566 8.53122966,11.2187566 C8.32289666,11.2187566 8.15623055,11.1458403 8.03123085,11.0000072 L4.99998808,8.00001431 L2,11.0000072 C1.85416209,11.1458403 1.67707949,11.2187566 1.4687465,11.2187566 C1.2604135,11.2187566 1.08333091,11.1458403 0.937497765,11.0000072 L0.218749478,10.3125088 C0.0729163339,10.1666756 0,9.98959305 0,9.78126006 C0,9.57292706 0.0729163339,9.39584447 0.218749478,9.25001132 L4.46873935,5.00002146 C4.61457249,4.85418831 4.79165508,4.78127198 4.99998808,4.78127198 C5.20832107,4.78127198 5.38540367,4.85418831 5.53123681,5.00002146 Z" transform="translate(.5 -4.25)"/>
</svg>
