<svg xmlns="http://www.w3.org/2000/svg" width="21" height="22" viewBox="0 0 21 22">
  <path fill="#2E0057" d="M20.2284686,47.8281493 C20.4198746,47.8281493 20.5634289,47.9101803 20.6591316,48.0742424 C20.7548343,48.2383045 20.7479988,48.4023666 20.6386239,48.5664287 C20.1190936,49.4414264 19.4149942,50.1386904 18.5263242,50.6582206 C17.6376542,51.1777508 16.6601177,51.4375156 15.593714,51.4375156 C14.5273103,51.4375156 13.5429377,51.1777508 12.6405961,50.6582206 C11.7382545,50.1386904 11.0204827,49.4277548 10.4872809,48.5254132 C9.95407902,47.6230716 9.6874781,46.638699 9.6874781,45.5722953 C9.6874781,44.5058915 9.95407902,43.5146828 10.4872809,42.5986695 C11.0204827,41.6826563 11.7382545,40.9580484 12.6405961,40.4248466 C13.5429377,39.8916447 14.5273103,39.6250438 15.593714,39.6250438 C16.6601177,39.6250438 17.6376542,39.8848086 18.5263242,40.4043388 C19.4149942,40.923869 20.1190936,41.621133 20.6386239,42.4961307 C20.7479988,42.6601928 20.7548343,42.8242549 20.6591316,42.988317 C20.5634289,43.1523791 20.4198746,43.2344102 20.2284686,43.2344102 L15.9218382,43.2344102 L14.2812171,45.5312797 L15.9218382,47.8281493 L20.2284686,47.8281493 Z M13.2148134,51.6425933 L4.97069247,59.8456987 C4.47850614,60.3652289 3.86327323,60.6249937 3.12499374,60.6249937 C2.38671425,60.6249937 1.76464521,60.3720644 1.25878725,59.8662065 C0.752929293,59.3603485 0.5,58.7382795 0.5,58 C0.5,57.2617205 0.759764797,56.6464876 1.27929502,56.1543013 L9.48240046,47.9101803 C9.81052468,48.7578347 10.302711,49.5097859 10.9589594,50.1660343 C11.6152079,50.8222827 12.367159,51.3144691 13.2148134,51.6425933 Z M4.76561483,57.3437516 C4.76561483,57.0703145 4.66991214,56.8378936 4.47850614,56.6464876 C4.28710014,56.4550816 4.05467923,56.3593789 3.78124218,56.3593789 C3.50780512,56.3593789 3.27538422,56.4550816 3.08397821,56.6464876 C2.89257221,56.8378936 2.79686952,57.0703145 2.79686952,57.3437516 C2.79686952,57.6171886 2.89257221,57.8496095 3.08397821,58.0410155 C3.27538422,58.2324215 3.50780512,58.3281242 3.78124218,58.3281242 C4.05467923,58.3281242 4.28710014,58.2324215 4.47850614,58.0410155 C4.66991214,57.8496095 4.76561483,57.6171886 4.76561483,57.3437516 Z" transform="translate(-.5 -39)"/>
</svg>
